<svg width="144" height="144" viewBox="0 0 144 144" fill="none" xmlns="http://www.w3.org/2000/svg">
<path d="M93.9104 8.67055C74.1405 11.4985 65.764 24.776 65.764 24.776C64.7224 22.0657 63.3821 19.4768 61.7671 17.056C61.6498 16.8847 61.4811 16.7539 61.2848 16.6821C61.0884 16.6102 60.8742 16.6008 60.6722 16.6552C58.4104 17.3526 56.3087 18.4802 54.4855 19.9746C54.3819 20.0573 54.2961 20.1596 54.233 20.2754C54.1699 20.3913 54.1308 20.5184 54.1179 20.6493C54.1051 20.7802 54.1188 20.9123 54.1583 21.038C54.1977 21.1636 54.2621 21.2802 54.3476 21.381C57.4567 25.1941 59.9846 29.4354 61.8513 33.9705C61.8627 33.978 61.876 33.982 61.8896 33.982C61.9032 33.982 61.9166 33.978 61.9279 33.9705C65.2554 33.4722 68.6158 33.2195 71.9813 33.2144H72.8389C74.3319 31.3694 80.3732 24.0955 85.6411 20.1636C85.7636 20.0624 85.9202 20.0104 86.0798 20.0181C86.2394 20.0257 86.3902 20.0925 86.5022 20.205C86.6141 20.3175 86.6791 20.4675 86.6842 20.6252C86.6892 20.7829 86.6339 20.9366 86.5293 21.0559C83.8724 24.3828 80.4038 28.292 76.8128 33.2597C76.8048 33.2716 76.8001 33.2854 76.799 33.2996C76.798 33.3138 76.8007 33.3281 76.8068 33.341C76.813 33.3539 76.8224 33.365 76.8342 33.3733C76.8459 33.3816 76.8596 33.3868 76.874 33.3883C80.4863 33.6476 84.0713 34.1963 87.5936 35.0291C87.6043 35.0344 87.6161 35.0372 87.628 35.0372C87.64 35.0372 87.6518 35.0344 87.6625 35.0291C96.085 27.8232 97.5551 17.4265 97.6776 11.9446C97.682 11.4744 97.5839 11.0087 97.3898 10.5794C97.1956 10.15 96.9102 9.76693 96.5527 9.45627C96.1953 9.14561 95.7742 8.91463 95.3183 8.77905C94.8623 8.64347 94.3822 8.60646 93.9104 8.67055Z" fill="white"/>
<path d="M71.9964 36.8437C42.5789 36.8437 18.7202 57.0398 18.7202 81.9541C18.7202 97.3488 27.8318 110.936 41.7366 119.08L37.5484 133.091C37.3839 133.639 37.3877 134.223 37.5595 134.769C37.7313 135.315 38.0633 135.798 38.5134 136.157C38.9635 136.517 39.5115 136.736 40.088 136.788C40.6645 136.84 41.2436 136.721 41.7519 136.448L61.0931 126.134C64.6934 126.753 68.342 127.057 71.9964 127.042C101.422 127.042 125.28 106.846 125.28 81.9314C125.28 57.0171 101.422 36.8437 71.9964 36.8437ZM77.6471 111.761C58.5051 111.761 42.977 98.6115 42.977 82.4002C42.977 66.1889 58.4974 53.0399 77.6471 53.0399C96.7968 53.0399 112.325 66.1813 112.325 82.4002C112.325 98.6191 96.7968 111.761 77.6471 111.761Z" fill="white"/>
<path d="M69.4851 85.4474C71.443 85.4474 73.0302 83.88 73.0302 81.9465C73.0302 80.013 71.443 78.4456 69.4851 78.4456C67.5271 78.4456 65.9399 80.013 65.9399 81.9465C65.9399 83.88 67.5271 85.4474 69.4851 85.4474Z" fill="white"/>
<path d="M80.84 90.8234C82.7979 90.8234 84.3851 89.256 84.3851 87.3225C84.3851 85.3891 82.7979 83.8217 80.84 83.8217C78.8821 83.8217 77.2949 85.3891 77.2949 87.3225C77.2949 89.256 78.8821 90.8234 80.84 90.8234Z" fill="white"/>
<path d="M92.1953 85.4474C94.1532 85.4474 95.7404 83.88 95.7404 81.9465C95.7404 80.013 94.1532 78.4456 92.1953 78.4456C90.2373 78.4456 88.6501 80.013 88.6501 81.9465C88.6501 83.88 90.2373 85.4474 92.1953 85.4474Z" fill="white"/>
</svg>
