<svg width="200" height="200" viewBox="0 0 200 200" fill="none" xmlns="http://www.w3.org/2000/svg">
<path d="M120.027 15.0349C101.956 17.6435 94.2996 29.8915 94.2996 29.8915C93.3476 27.3914 92.1224 25.0032 90.6463 22.7701C90.5391 22.6121 90.3849 22.4915 90.2054 22.4252C90.026 22.3589 89.8302 22.3502 89.6455 22.4004C87.5782 23.0437 85.6571 24.0839 83.9906 25.4624C83.8959 25.5387 83.8175 25.6331 83.7598 25.7399C83.7021 25.8468 83.6664 25.964 83.6547 26.0848C83.6429 26.2055 83.6555 26.3274 83.6915 26.4433C83.7275 26.5592 83.7864 26.6668 83.8646 26.7598C86.7064 30.2771 89.017 34.1896 90.7233 38.373C90.7336 38.3799 90.7458 38.3836 90.7583 38.3836C90.7707 38.3836 90.7829 38.3799 90.7933 38.373C93.8347 37.9134 96.9063 37.6802 99.9825 37.6755H100.766C102.131 35.9736 107.653 29.2638 112.468 25.6368C112.58 25.5434 112.723 25.4955 112.869 25.5025C113.015 25.5096 113.153 25.5711 113.255 25.6749C113.358 25.7787 113.417 25.9171 113.422 26.0625C113.426 26.208 113.376 26.3498 113.28 26.4598C110.851 29.5288 107.681 33.1348 104.399 37.7174C104.391 37.7284 104.387 37.741 104.386 37.7542C104.385 37.7673 104.388 37.7804 104.393 37.7923C104.399 37.8043 104.407 37.8145 104.418 37.8221C104.429 37.8298 104.442 37.8345 104.455 37.836C107.756 38.0752 111.033 38.5813 114.253 39.3495C114.263 39.3544 114.273 39.357 114.284 39.357C114.295 39.357 114.306 39.3544 114.316 39.3495C122.014 32.7024 123.358 23.1119 123.47 18.055C123.474 17.6213 123.384 17.1918 123.207 16.7957C123.029 16.3996 122.769 16.0463 122.442 15.7597C122.115 15.4731 121.73 15.2601 121.313 15.135C120.897 15.0099 120.458 14.9758 120.027 15.0349Z" fill="#5FD972"/>
<path d="M99.9964 41.0235C73.1076 41.0235 51.2998 59.6535 51.2998 82.6359C51.2998 96.8369 59.6282 109.371 72.3378 116.883L68.5095 129.807C68.3591 130.313 68.3627 130.852 68.5197 131.355C68.6768 131.859 68.9802 132.305 69.3916 132.636C69.803 132.968 70.3039 133.17 70.8309 133.218C71.3578 133.266 71.8871 133.157 72.3518 132.904L90.0304 123.39C93.3212 123.961 96.6562 124.241 99.9964 124.227C126.892 124.227 148.7 105.597 148.7 82.615C148.7 59.6326 126.892 41.0235 99.9964 41.0235ZM105.161 110.131C87.6648 110.131 73.4715 98.0017 73.4715 83.0474C73.4715 68.0932 87.6578 55.9638 105.161 55.9638C122.665 55.9638 136.858 68.0862 136.858 83.0474C136.858 98.0087 122.665 110.131 105.161 110.131Z" fill="#F26E22"/>
<path d="M97.7008 85.8583C99.4904 85.8583 100.941 84.4125 100.941 82.6289C100.941 80.8454 99.4904 79.3995 97.7008 79.3995C95.9112 79.3995 94.4604 80.8454 94.4604 82.6289C94.4604 84.4125 95.9112 85.8583 97.7008 85.8583Z" fill="#F26E22"/>
<path d="M108.08 90.8175C109.869 90.8175 111.32 89.3717 111.32 87.5881C111.32 85.8046 109.869 84.3587 108.08 84.3587C106.29 84.3587 104.839 85.8046 104.839 87.5881C104.839 89.3717 106.29 90.8175 108.08 90.8175Z" fill="#F26E22"/>
<path d="M118.459 85.8583C120.248 85.8583 121.699 84.4125 121.699 82.6289C121.699 80.8454 120.248 79.3995 118.459 79.3995C116.669 79.3995 115.218 80.8454 115.218 82.6289C115.218 84.4125 116.669 85.8583 118.459 85.8583Z" fill="#F26E22"/>
<path d="M35 168.49V164.053C39.8991 163.551 46.3658 161.326 46.3658 155.76H35.8678V151.52H51.6428V155.14C51.6358 165.769 39.997 167.945 35 168.49ZM60.1532 170.582V184.532H43.6713C42.8765 184.534 42.1126 184.225 41.5434 183.673C40.9743 183.12 40.6452 182.366 40.6269 181.575V170.554L60.1532 170.582ZM45.7779 174.767V179.203C45.7541 179.357 45.767 179.514 45.8155 179.662C45.8641 179.81 45.9469 179.944 46.0574 180.054C46.1678 180.165 46.3027 180.247 46.4511 180.295C46.5996 180.344 46.7574 180.357 46.9117 180.333H54.9952V174.753L45.7779 174.767ZM55.779 163.607V150.843H60.895V156.8H65.8571V161.04H60.895V163.377C60.895 164.584 60.937 167.736 59.9572 169.654L55.4641 167.471C55.6726 166.187 55.7779 164.887 55.779 163.586V163.607Z" fill="#F26E22"/>
<path d="M70.4694 161.25C70.988 161.841 71.6373 162.304 72.3661 162.601C73.0948 162.899 73.8831 163.024 74.6686 162.966H98.464V167.207H90.8565V170.053H93.6559V179.001H79.2947V179.699C79.2947 180.438 79.5326 180.752 80.3515 180.752H90.2896C92.2002 180.752 92.984 180.362 93.7889 179.741L97.1133 181.833C95.2376 183.744 93.089 184.561 90.0376 184.623H76.8801C76.4799 184.649 76.0787 184.591 75.7025 184.452C75.3263 184.314 74.9833 184.098 74.6958 183.82C74.4083 183.541 74.1826 183.205 74.0332 182.834C73.8839 182.463 73.8142 182.065 73.8287 181.666V175.423H88.4769V173.945H73.7797V170.053H76.5792V167.207H74.3116C71.2252 167.207 68.4958 165.533 66.5781 163.161L70.4694 161.25ZM93.8659 156.584C93.8659 158.446 93.7889 160.867 92.9281 162.534L88.4349 160.357C88.68 159.087 88.7856 157.794 88.7499 156.5V155.105H73.3528V150.83H93.8589L93.8659 156.584ZM81.5203 170.053H85.8594V167.207H81.5203V170.053Z" fill="#F26E22"/>
<path d="M105.078 171.608C104.289 171.591 103.535 171.277 102.97 170.728C102.405 170.179 102.07 169.436 102.033 168.651V152.183H118.438V171.608H105.078ZM113.322 156.424H107.149V166.189C107.145 166.338 107.172 166.487 107.228 166.625C107.283 166.764 107.367 166.89 107.473 166.996C107.579 167.102 107.705 167.185 107.845 167.24C107.984 167.296 108.133 167.322 108.283 167.318H113.322V156.424ZM127.655 159.423H132.652V163.664H127.655V171.999C127.655 173.205 127.697 176.358 126.717 178.276L122.224 176.1C122.431 174.824 122.537 173.535 122.539 172.243V150.823H127.655V159.423Z" fill="#F26E22"/>
<path d="M145.509 155.684H135.942V151.499H150.702V155.238C150.706 155.937 150.666 156.636 150.583 157.33H153.277V150.795H158.274V165.379C158.355 166.938 158.197 168.5 157.806 170.011L153.039 168.26C153.223 167.342 153.303 166.406 153.277 165.47V161.766H149.176C146.286 167.346 139.756 169.439 135.382 169.983V165.47C138.356 165.038 141.205 163.991 143.115 162.038H135.942V157.993H145.271C145.436 157.235 145.516 156.46 145.509 155.684ZM149.337 170.708H154.677C154.677 176.511 159.128 179.078 163.467 180.208L161.627 184.533C158.351 183.751 153.781 181.575 152.018 178.89C150.38 181.575 145.719 183.828 142.45 184.533L140.617 180.173C144.494 179.12 149.337 176.539 149.337 170.708ZM160.003 150.823H165V164.522C165 165.728 165.042 168.881 164.062 170.799L159.688 168.616C159.895 167.343 160 166.055 160.003 164.766V150.823Z" fill="#F26E22"/>
</svg>
