<svg width="20" height="20" viewBox="0 0 20 20" fill="none" xmlns="http://www.w3.org/2000/svg">
<g filter="url(#filter0_d_0_679)">
<path d="M14.8148 13.3334C15.3773 13.3334 15.8334 12.8773 15.8334 12.3148V5.18521C15.8334 4.62269 15.3773 4.16669 14.8148 4.16669H7.68521C7.12269 4.16669 6.66669 4.62269 6.66669 5.18521" stroke="white" stroke-linecap="round" stroke-linejoin="round"/>
</g>
<g filter="url(#filter1_d_0_679)">
<path d="M12.3148 6.66669H5.18521C4.62269 6.66669 4.16669 7.12269 4.16669 7.68521V14.8148C4.16669 15.3773 4.62269 15.8334 5.18521 15.8334H12.3148C12.8773 15.8334 13.3334 15.3773 13.3334 14.8148V7.68521C13.3334 7.12269 12.8773 6.66669 12.3148 6.66669Z" fill="white"/>
<path d="M12.3148 6.66669H5.18521C4.62269 6.66669 4.16669 7.12269 4.16669 7.68521V14.8148C4.16669 15.3773 4.62269 15.8334 5.18521 15.8334H12.3148C12.8773 15.8334 13.3334 15.3773 13.3334 14.8148V7.68521C13.3334 7.12269 12.8773 6.66669 12.3148 6.66669Z" stroke="white" stroke-linecap="round" stroke-linejoin="round"/>
</g>
<defs>
<filter id="filter0_d_0_679" x="4.16669" y="1.66669" width="14.1667" height="14.1667" filterUnits="userSpaceOnUse" color-interpolation-filters="sRGB">
<feFlood flood-opacity="0" result="BackgroundImageFix"/>
<feColorMatrix in="SourceAlpha" type="matrix" values="0 0 0 0 0 0 0 0 0 0 0 0 0 0 0 0 0 0 127 0" result="hardAlpha"/>
<feOffset/>
<feGaussianBlur stdDeviation="1"/>
<feComposite in2="hardAlpha" operator="out"/>
<feColorMatrix type="matrix" values="0 0 0 0 0 0 0 0 0 0 0 0 0 0 0 0 0 0 0.5 0"/>
<feBlend mode="normal" in2="BackgroundImageFix" result="effect1_dropShadow_0_679"/>
<feBlend mode="normal" in="SourceGraphic" in2="effect1_dropShadow_0_679" result="shape"/>
</filter>
<filter id="filter1_d_0_679" x="1.66669" y="4.16669" width="14.1667" height="14.1667" filterUnits="userSpaceOnUse" color-interpolation-filters="sRGB">
<feFlood flood-opacity="0" result="BackgroundImageFix"/>
<feColorMatrix in="SourceAlpha" type="matrix" values="0 0 0 0 0 0 0 0 0 0 0 0 0 0 0 0 0 0 127 0" result="hardAlpha"/>
<feOffset/>
<feGaussianBlur stdDeviation="1"/>
<feComposite in2="hardAlpha" operator="out"/>
<feColorMatrix type="matrix" values="0 0 0 0 0 0 0 0 0 0 0 0 0 0 0 0 0 0 0.5 0"/>
<feBlend mode="normal" in2="BackgroundImageFix" result="effect1_dropShadow_0_679"/>
<feBlend mode="normal" in="SourceGraphic" in2="effect1_dropShadow_0_679" result="shape"/>
</filter>
</defs>
</svg>
