<?xml version="1.0" encoding="UTF-8"?><svg xmlns="http://www.w3.org/2000/svg" viewBox="0 0 383.37 383.52"><defs><style>.d{opacity:.1;}.d,.e,.f,.g,.h,.i,.j,.k,.l,.m,.n,.o,.p,.q,.r{fill:#9986f7;}.f{opacity:.2;}.g{opacity:.5;}.h{opacity:.9;}.i{opacity:.85;}.j{opacity:.8;}.k{opacity:.7;}.l{opacity:.75;}.m{opacity:.3;}.n{opacity:.45;}.o{opacity:.4;}.p{opacity:.35;}.q{opacity:.65;}.r{opacity:.95;}</style></defs><g id="a"/><g id="b"><g id="c"><path class="e" d="M196.19,0c8.01,3.63,9.89,10.36,9.8,18.44-.19,15.82,0,31.65-.09,47.47-.06,9.24-4.09,14.49-11.99,16.07-6.65,1.34-13.98-3.19-15.54-9.8-.59-2.52-.86-5.17-.88-7.76-.08-15.33,.09-30.65-.09-45.98-.1-8.08,1.78-14.81,9.8-18.44h8.98Z"/><path class="j" d="M383.37,196.13c-3.64,7.99-10.36,9.89-18.44,9.79-15.69-.19-31.39,0-47.09-.09-4.94-.03-9.66-.96-13.22-4.95-6.67-7.5-3.37-19.59,6.25-22.32,2.6-.74,5.39-1.08,8.09-1.1,15.32-.1,30.64,.09,45.96-.1,8.08-.1,14.8,1.8,18.44,9.79v8.98Z"/><path class="g" d="M205.92,342.25c0,8.23,.15,16.46-.06,24.68-.15,5.87-1.34,11.38-7.14,14.69-7.97,4.55-18.02,.58-20.3-8.26-.58-2.27-.91-4.67-.92-7.01-.08-16.2-.08-32.41-.02-48.61,.03-8.65,3.84-14.29,10.64-16.1,7.4-1.97,14.6,1.96,16.7,9.34,.67,2.36,1.01,4.89,1.05,7.36,.13,7.98,.05,15.95,.05,23.93Z"/><path class="m" d="M40.9,205.87c-7.86,0-15.72,.07-23.57-.04-2.47-.04-4.99-.34-7.39-.93C3.76,203.36,0,198.21,0,191.65c0-6.56,3.76-11.71,9.92-13.26,2.28-.57,4.67-.92,7.02-.93,16.21-.08,32.43-.08,48.64-.02,8.61,.03,14.27,3.88,16.11,10.7,2.03,7.54-2.49,15.5-10.2,16.74-5.74,.92-11.65,.78-17.49,.97-4.36,.14-8.73,.03-13.1,.03Z"/><path class="h" d="M280.62,118.46c-7.53-.47-11.97-3.03-14.37-8.48-2.39-5.43-1.65-10.82,2.39-14.97,12.85-13.21,25.89-26.25,39.09-39.12,5.99-5.84,14.18-5.53,19.75,.1,5.41,5.47,5.74,13.67,.07,19.5-12.86,13.21-25.9,26.24-39.15,39.05-2.32,2.24-6.02,3.06-7.78,3.91Z"/><path class="k" d="M264.87,280.67c.5-7.7,3.09-12.14,8.56-14.5,5.45-2.36,10.82-1.57,14.98,2.48,13.22,12.88,26.29,25.92,39.16,39.15,5.67,5.83,5.31,14.06-.14,19.52-5.45,5.46-13.69,5.86-19.51,.2-13.06-12.68-25.94-25.57-38.59-38.66-2.43-2.51-3.48-6.34-4.45-8.19Z"/><path class="o" d="M118.5,280.83c-1.1,1.96-2.39,5.92-4.99,8.62-12.2,12.65-24.7,25.02-37.21,37.36-6.29,6.21-14.6,6.27-20.36,.48-5.75-5.78-5.6-14.03,.64-20.36,12.27-12.42,24.63-24.74,37.03-37.03,5.01-4.97,10.9-6.23,16.4-3.73,5.42,2.47,8.02,6.84,8.49,14.65Z"/><path class="d" d="M118.3,102.5c-.17,12.5-11.81,19.11-20.83,13.81-1.49-.87-2.89-1.98-4.12-3.2-12.2-12.13-24.39-24.28-36.51-36.49-6.05-6.1-6.64-14.13-1.64-19.85,5.35-6.12,14.24-6.85,20.31-.97,13.07,12.67,25.93,25.56,38.57,38.65,2.42,2.51,3.4,6.4,4.23,8.04Z"/><path class="r" d="M272.96,27.09c-.51,2.03-.8,4.15-1.57,6.08-6.51,16.2-13.1,32.37-19.68,48.54-3.24,7.97-10.95,11.55-18.49,8.6-7.46-2.92-10.7-10.89-7.48-18.97,4.57-11.47,9.32-22.86,14-34.29,2.27-5.54,4.28-11.2,6.91-16.57,3.51-7.15,11.83-9.69,18.81-6.04,5.01,2.62,7.33,6.92,7.49,12.65Z"/><path class="i" d="M306.11,159.08c-7.01-.3-12.27-4.49-13.8-11.27-1.4-6.21,1.66-12.93,7.72-15.46,17.15-7.15,34.36-14.17,51.66-20.96,7.05-2.77,14.91,.78,17.6,7.26,3.01,7.26,.39,15.03-6.91,18.25-11.29,4.99-22.82,9.44-34.24,14.12-5.19,2.13-10.36,4.33-15.6,6.34-2.06,.79-4.29,1.15-6.44,1.71Z"/><path class="l" d="M356.7,272.63c-2.03-.51-4.15-.78-6.08-1.56-16.19-6.5-32.35-13.09-48.52-19.66-7.97-3.24-11.59-10.96-8.65-18.48,2.91-7.46,10.88-10.71,18.96-7.5,11.35,4.52,22.62,9.22,33.93,13.84,5.42,2.22,10.94,4.23,16.25,6.69,6.45,2.99,9.46,9.24,7.95,15.63-1.64,6.98-6.43,10.7-13.84,11.02Z"/><path class="q" d="M272.89,356.47c-.32,7.29-4.16,12.05-11.21,13.63-6.13,1.37-12.82-1.87-15.34-7.93-7.05-16.9-14.03-33.84-20.79-50.86-3.04-7.64,.45-15.46,7.61-18.3,7.35-2.92,14.91,.24,18.09,7.87,6.89,16.57,13.65,33.19,20.37,49.83,.73,1.8,.87,3.84,1.29,5.76Z"/><path class="n" d="M110.51,356.26c.39-1.81,.53-3.72,1.21-5.4,6.73-16.63,13.46-33.25,20.37-49.8,3.27-7.83,10.98-11,18.38-7.95,7.07,2.92,10.37,10.76,7.3,18.44-6.75,16.89-13.66,33.7-20.65,50.49-2.53,6.09-9.16,9.41-15.26,8.09-7.23-1.56-11.07-6.36-11.35-13.87Z"/><path class="p" d="M29.52,272.51c-9.88,0-14.86-4.02-16.37-11.14-1.29-6.09,2.1-12.67,8.22-15.21,16.69-6.93,33.41-13.8,50.19-20.52,7.85-3.15,15.58,.08,18.72,7.42,2.95,6.92-.29,14.79-8.04,18.11-13.06,5.6-26.27,10.85-39.44,16.19-5.14,2.09-10.35,4.03-13.28,5.16Z"/><path class="f" d="M27.01,110.34c2.73,.79,5.54,1.36,8.16,2.42,15.12,6.11,30.2,12.33,45.29,18.51,9.97,4.09,13.67,13.21,8.58,21.17-3.32,5.2-10.3,7.88-16.04,5.6-17.36-6.89-34.67-13.91-51.92-21.06-6.04-2.5-9.26-9.24-7.87-15.35,1.56-6.87,6.65-10.91,13.79-11.29Z"/></g></g></svg>