<svg width="158" height="158" viewBox="0 0 158 158" fill="none" xmlns="http://www.w3.org/2000/svg">
<path d="M149.832 98.6361C149.742 97.7384 149.379 96.3919 149.108 95.4942C148.926 94.7761 148.745 94.058 148.383 93.3398C147.658 91.724 146.933 90.1082 146.118 88.4924C145.303 86.9663 144.487 85.4403 143.672 83.8244C142.766 81.9393 141.86 80.0542 141.135 78.0793C140.682 76.8226 140.32 75.476 140.048 74.1295C139.867 73.3216 139.867 72.4239 139.776 71.616C139.776 70.449 139.686 69.2821 139.958 68.1151C140.139 67.3969 140.048 66.6788 140.139 65.9607C140.32 64.6141 140.592 63.1779 140.592 61.8313C140.682 59.9462 140.863 58.0611 140.411 56.176C140.229 55.3681 140.048 54.6499 139.686 53.9318C138.87 52.316 137.693 51.0592 136.062 50.2513C134.522 49.4434 132.891 48.9946 131.17 48.7252C130.264 48.5457 129.267 48.4559 128.361 48.2764C127.184 48.0969 125.915 47.9173 124.738 47.7378C124.013 47.648 123.288 47.4685 122.563 47.289C121.657 47.1094 120.842 46.8401 120.027 46.5708C117.943 45.8527 116.312 44.5959 114.863 42.9801C113.685 41.5438 112.87 39.928 111.964 38.3122C110.876 36.3373 109.608 34.5419 107.887 33.1057C106.165 31.6694 104.263 30.5922 102.179 29.874C100.911 29.4252 99.6426 29.1559 98.3743 29.0661C96.5624 28.8866 94.6599 29.0661 92.9386 29.515C91.5796 29.874 90.2207 30.4126 89.043 31.041C87.1405 32.1182 85.5097 33.375 84.2414 34.9908C83.9696 35.3499 83.6072 35.7089 83.3354 36.1578C82.9731 36.6964 82.1577 36.6964 81.6141 36.3373C80.7988 35.7089 79.8928 35.0805 78.9869 34.4522C77.3562 33.375 75.6348 32.5671 73.8229 31.8489C73.0076 31.5796 72.1922 31.2205 71.2863 30.9512C70.4709 30.6819 69.6556 30.5024 68.8402 30.3229C68.2966 30.2331 67.6625 30.0536 67.0283 29.9638C66.1223 29.874 65.2164 29.6945 64.3104 29.6047C63.3139 29.515 62.4079 29.515 61.4114 29.515C60.5054 29.515 59.6901 29.515 58.7841 29.6047C57.8782 29.6945 57.0628 29.874 56.1569 29.9638C55.1603 30.1433 54.2544 30.2331 53.2578 30.5024C52.3518 30.7717 51.4459 31.041 50.5399 31.4001C49.4528 31.7591 48.2751 32.208 47.2785 32.6568C44.2889 34.0931 41.571 35.9782 39.2155 38.2224C37.766 39.6587 36.4071 41.1848 35.2293 42.8006C34.3234 44.0573 33.4174 45.3141 32.5115 46.5708C31.6055 47.8276 30.7902 49.1741 29.7936 50.4308C28.5253 52.1364 27.2569 53.9318 25.898 55.5476C23.6331 58.2406 20.9153 60.5746 17.9256 62.6392C17.1103 63.1779 16.2949 63.7165 15.5701 64.3448C12.4899 66.6788 9.40966 69.0128 7.86954 72.5137C7.41657 73.5909 7.05418 74.7579 7.05418 75.9249C6.96359 77.0021 6.96359 78.1691 7.23537 79.336C7.41656 80.503 7.77895 81.67 8.14133 82.7472C8.6849 84.4528 9.50026 86.0686 10.4062 87.6844C11.7651 90.1979 13.2147 92.6217 14.483 95.1352C15.1172 96.2124 15.5701 97.3794 16.0231 98.6361C16.3855 99.6236 16.6573 100.611 16.9291 101.598C17.0197 102.047 17.2009 102.676 17.2009 103.124C17.2915 104.291 17.2915 105.458 17.2915 106.536C17.2915 107.523 17.1103 108.511 17.0197 109.498C16.9291 109.947 16.8385 110.755 16.7479 111.293C16.5667 112.191 16.2949 113.089 16.1137 114.076C16.0231 114.525 15.9325 114.884 15.8419 115.333C15.7513 115.872 15.6607 116.41 15.5701 116.949C15.4796 117.308 15.389 117.757 15.389 118.116C15.2078 118.924 15.0266 119.642 15.0266 120.45C14.936 121.706 14.8454 122.963 15.0266 124.22C15.1172 124.848 15.1172 125.477 15.2984 126.105C15.5701 127.003 15.8419 127.811 16.2043 128.708C17.0197 130.414 18.1068 131.94 19.3751 133.376C20.8247 134.902 22.4554 136.249 24.2673 137.416C25.7168 138.313 27.1663 139.211 28.7065 139.929C29.703 140.378 30.6996 140.827 31.6961 141.276C32.5115 141.635 33.3268 141.904 34.1422 142.263C35.1387 142.622 36.2259 143.071 37.313 143.43C38.219 143.789 39.2155 144.059 40.2121 144.328C40.8462 144.507 41.4804 144.687 42.1146 144.866C42.9299 145.046 43.7453 145.226 44.5607 145.405C45.5572 145.585 46.4632 145.854 47.4597 146.033C48.1845 146.213 48.9092 146.303 49.634 146.393C51.0835 146.572 52.533 146.841 54.0732 147.021C55.0697 147.111 55.9757 147.2 56.9722 147.29C58.6029 147.38 60.2336 147.38 61.8644 147.38C62.4985 147.38 63.1327 147.38 63.7669 147.38C65.0352 147.38 66.3035 147.38 67.5719 147.2C68.5684 147.021 69.6556 147.111 70.6521 146.931C71.7393 146.752 72.8264 146.662 73.9135 146.482C74.6383 146.393 75.2725 146.303 75.9972 146.123C76.5408 146.033 77.175 145.944 77.7185 145.854C78.0809 145.764 78.3527 145.764 78.7151 145.674C79.1681 145.585 79.7116 145.495 80.1646 145.405C80.7082 145.315 81.2518 145.136 81.8859 145.046C82.4295 144.956 82.8825 144.867 83.4261 144.777C84.2414 144.597 85.0568 144.328 85.9627 144.148C86.5969 143.969 87.1405 143.879 87.7746 143.7C88.4994 143.52 89.3148 143.34 90.0395 143.161C90.8549 142.981 91.6702 142.802 92.4856 142.622C92.848 142.533 93.3009 142.443 93.6633 142.353C94.2069 142.263 94.6599 142.084 95.2034 141.994C95.6564 141.904 96.1094 141.814 96.5624 141.725C97.4683 141.455 98.4649 141.276 99.3708 141.006C100.186 140.827 101.002 140.647 101.817 140.468C102.36 140.378 102.813 140.199 103.357 140.109C103.81 140.019 104.263 139.929 104.716 139.75C105.26 139.66 105.713 139.48 106.256 139.391C106.709 139.301 107.162 139.211 107.615 139.121C108.43 138.942 109.246 138.673 110.061 138.493C111.058 138.224 112.054 138.044 113.051 137.775C113.413 137.685 113.866 137.595 114.228 137.506C114.953 137.326 115.678 137.146 116.403 136.967C117.218 136.787 118.033 136.428 118.758 136.249C119.302 136.069 119.845 135.979 120.389 135.8C121.385 135.441 122.291 135.082 123.197 134.723C124.647 134.184 125.915 133.466 127.274 132.748C128.996 131.76 130.536 130.683 131.985 129.426C133.253 128.349 134.341 127.092 135.518 125.926C137.421 124.04 139.052 121.886 140.682 119.821C141.498 118.744 142.313 117.667 143.128 116.59C144.487 114.705 145.846 112.909 147.115 110.934C147.93 109.588 148.655 108.241 149.289 106.805C149.561 106.087 149.832 105.279 150.014 104.561C150.195 103.932 150.195 103.394 150.376 102.765C150.014 101.06 149.923 99.8929 149.832 98.6361ZM57.0628 49.6229C56.338 48.9048 56.0663 48.0969 56.1569 47.1992C56.2474 46.3913 56.5192 45.7629 57.244 45.3141C57.7876 45.0448 58.2405 45.0448 58.7841 45.3141C59.6901 45.8527 59.9619 46.6606 59.9619 47.7378C59.9619 48.4559 59.7807 49.0843 59.2371 49.6229C58.7841 50.1615 57.6064 50.1615 57.0628 49.6229ZM76.6314 54.7397C76.4502 55.8169 75.9972 56.8043 75.3631 57.7918C74.2759 59.4076 73.0076 60.6644 71.2863 61.6518C70.3803 62.1006 69.4744 62.3699 68.5684 62.2802C67.2095 62.3699 66.0317 61.9211 64.9446 61.203C63.9481 60.5746 63.0421 59.9462 62.1362 59.1383C61.4114 58.5099 60.7772 57.8816 60.3242 57.1634C59.7807 56.3555 59.7807 55.2783 60.3242 54.5602C60.8678 53.4829 61.6832 52.9443 62.5891 52.4057C63.5857 51.7773 64.6728 51.3285 65.76 50.9694C66.5753 50.7001 67.3907 50.6104 68.206 50.4308C69.0214 50.1615 69.8368 50.2513 70.7427 50.0718C71.1051 49.982 71.3769 49.982 71.7393 50.0718C72.2828 50.0718 72.917 50.1615 73.4606 50.2513C74.7289 50.5206 75.816 51.0592 76.3596 52.4057C76.6314 53.1239 76.722 53.9318 76.6314 54.7397ZM81.7953 46.4811C81.7953 46.7504 81.6141 47.1094 81.5235 47.3787C81.2518 48.0969 80.7082 48.4559 79.9834 48.3662C79.2587 48.3662 78.7151 47.9173 78.4433 47.1992C78.4433 47.1094 78.3527 47.0197 78.3527 46.9299C78.0809 46.2118 77.9903 45.3141 78.3527 44.5959C78.2621 44.5959 78.4433 44.4164 78.5339 44.2369C79.1681 43.3392 80.4364 43.3392 81.1612 44.1471C81.7047 44.8652 81.8859 45.6731 81.7953 46.4811Z" fill="#DBDBDB"/>
<path d="M103.81 27.8991C103.538 28.4377 103.991 28.7968 104.082 28.9763L105.26 29.6047C107.796 30.7717 109.88 32.4773 111.782 34.901C112.507 35.8885 113.051 36.8759 113.594 37.8634C113.957 38.402 114.229 39.0303 114.591 39.5689C115.406 40.9155 116.222 42.3517 117.581 43.3392C118.668 44.2369 119.845 44.8652 121.114 45.2243C121.929 45.4936 122.654 45.6731 123.469 45.7629L123.832 45.8527C124.647 46.0322 125.462 46.122 126.368 46.2118C126.459 46.2118 126.55 46.2118 126.64 46.2118C127.093 46.2118 127.365 45.7629 127.546 45.6731L127.637 45.5834C127.999 44.6857 128.361 43.788 128.633 42.8903L129.177 41.0052C129.267 40.6462 129.358 40.2871 129.449 39.928C129.539 39.4792 129.72 38.9406 129.811 38.4917C129.902 38.1327 129.992 37.7736 129.992 37.4145C129.992 37.0554 130.083 36.7861 130.173 36.4271C130.445 34.6317 130.536 32.7466 130.626 30.9512C130.536 30.2331 130.445 29.1559 130.445 28.0787C130.445 27.8991 130.355 27.6298 130.355 27.3605C130.264 26.6424 130.173 25.8345 130.083 25.2959C129.902 24.2187 129.72 23.1414 129.358 21.9745C129.267 21.7052 129.177 21.3461 129.086 21.0768C128.905 20.4484 128.724 19.82 128.543 19.2814C127.908 17.5758 127.274 16.3191 126.368 15.1521C125.191 13.4465 123.922 12.2796 122.563 11.4716C121.567 10.7535 120.298 10.3944 118.758 10.1251C117.399 9.94559 116.222 9.94559 115.044 10.2149C113.957 10.4842 112.96 10.7535 111.873 11.2023C109.336 12.3693 107.162 14.434 105.713 17.127C105.26 17.8452 104.988 18.6531 104.716 19.3712L104.625 19.6405C104.535 19.82 104.444 20.0893 104.444 20.2689C104.263 20.628 104.172 21.0768 104.082 21.4359C103.901 22.2438 103.81 23.0517 103.719 23.9494C103.629 24.6675 103.629 25.4754 103.629 26.1936C103.629 26.4629 103.629 26.7322 103.629 27.0015C103.81 27.3605 103.81 27.6298 103.81 27.8991Z" fill="#DBDBDB"/>
<path d="M9.8623 33.1954C9.9529 33.8238 10.0435 34.5419 10.2247 35.1703C10.3153 35.7987 10.5871 36.427 10.7683 37.0554C10.8589 37.3247 10.9495 37.5043 11.04 37.7736C11.6742 39.3894 12.3084 40.6461 13.2143 41.8131C14.5733 43.6982 15.9322 45.1345 17.2911 46.3913C17.6535 46.7503 18.0159 47.0196 18.4689 47.3787C19.0124 47.9173 19.6466 48.3661 20.2808 48.815C21.8209 49.8922 23.5422 51.149 25.5353 52.4955C25.8071 52.675 25.9883 52.8545 26.2601 52.8545H26.3507C26.6224 52.7648 26.8036 52.5852 27.0754 52.2262L27.2566 51.9569C28.3438 50.6103 29.3403 49.1741 30.3369 47.7378C31.9676 45.4038 33.5983 43.0699 35.3196 40.9154C36.6785 39.2098 38.1281 37.6838 39.6682 36.3373C40.3929 35.6191 41.5707 34.6317 42.839 33.9135C43.3826 33.5545 43.9262 33.1954 44.5603 32.8363C44.9227 32.567 45.2851 32.3875 45.7381 32.1182L45.9193 32.0284V31.5796C45.9193 31.1307 45.7381 30.8614 45.5569 30.5024C45.4663 30.4126 45.4663 30.2331 45.3757 30.1433C44.1979 27.8093 42.5672 25.8344 40.4835 23.9493C38.1281 21.8847 35.229 20.2688 32.1488 19.3712C31.877 19.2814 31.6958 19.2814 31.424 19.1916C30.971 19.0121 30.4275 18.9223 29.9745 18.8326C29.0685 18.653 28.072 18.5633 27.166 18.5633C25.2635 18.4735 22.7268 18.4735 20.2808 19.2814C18.9218 19.6405 17.7441 20.2688 16.657 20.7177C13.3955 22.4233 11.3118 24.847 10.3153 28.0786C10.0435 29.1559 9.8623 30.1433 9.8623 31.041V32.7466V33.1954Z" fill="#DBDBDB"/>
<path d="M61.7568 83.0832V102.258H65.6666V106.958H61.7568V114.486H56.724V106.958H42V102.299C44.4401 99.1104 46.8387 95.9078 49.1956 92.6912C51.5526 89.4747 53.9511 86.272 56.3913 83.0832H61.7568ZM56.724 102.341V92.6496C56.724 92.4555 56.724 92.1089 56.724 91.6098C56.7517 91.1107 56.7795 90.5838 56.8072 90.0293L47.6567 102.341H56.724Z" fill="white"/>
<path d="M89.8615 99.055C89.8615 101.8 89.5703 104.185 88.988 106.209C88.4057 108.206 87.5877 109.869 86.534 111.2C85.508 112.503 84.288 113.474 82.8738 114.112C81.4596 114.75 79.9207 115.068 78.257 115.068C76.6487 115.068 75.1375 114.75 73.7233 114.112C72.3369 113.474 71.1168 112.503 70.0631 111.2C69.0371 109.869 68.233 108.206 67.6507 106.209C67.0684 104.185 66.7772 101.8 66.7772 99.055C66.7772 96.2821 67.0684 93.8974 67.6507 91.901C68.233 89.8767 69.0371 88.213 70.0631 86.9098C71.1168 85.5788 72.3369 84.5944 73.7233 83.9566C75.1375 83.3189 76.6487 83 78.257 83C79.9207 83 81.4596 83.3189 82.8738 83.9566C84.288 84.5944 85.508 85.5788 86.534 86.9098C87.5877 88.213 88.4057 89.8767 88.988 91.901C89.5703 93.8974 89.8615 96.2821 89.8615 99.055ZM84.0384 99.055C84.0384 96.8367 83.872 95.0066 83.5393 93.5647C83.2343 92.0951 82.8183 90.9443 82.2915 90.1124C81.7647 89.2528 81.1408 88.6567 80.4198 88.3239C79.7266 87.9635 79.0056 87.7832 78.257 87.7832C77.536 87.7832 76.8289 87.9635 76.1357 88.3239C75.4702 88.6567 74.874 89.2528 74.3472 90.1124C73.8203 90.9443 73.3905 92.0951 73.0578 93.5647C72.7528 95.0066 72.6003 96.8367 72.6003 99.055C72.6003 101.246 72.7528 103.062 73.0578 104.504C73.3905 105.946 73.8203 107.096 74.3472 107.956C74.874 108.816 75.4702 109.412 76.1357 109.744C76.8289 110.077 77.536 110.244 78.257 110.244C79.0056 110.244 79.7266 110.077 80.4198 109.744C81.1408 109.412 81.7647 108.816 82.2915 107.956C82.8183 107.096 83.2343 105.946 83.5393 104.504C83.872 103.062 84.0384 101.246 84.0384 99.055Z" fill="white"/>
<path d="M111.311 83.0832V102.258H115.221V106.958H111.311V114.486H106.278V106.958H91.5544V102.299C93.9946 99.1104 96.3931 95.9078 98.7501 92.6912C101.107 89.4747 103.506 86.272 105.946 83.0832H111.311ZM106.278 102.341V92.6496C106.278 92.4555 106.278 92.1089 106.278 91.6098C106.306 91.1107 106.334 90.5838 106.362 90.0293L97.2111 102.341H106.278Z" fill="white"/>
<path d="M37.0572 58C36.8406 60 37.1222 64 39.9807 64C42.8393 64 43.229 60 42.9042 58" stroke="white" stroke-width="2" stroke-linecap="round"/>
<path d="M25.0572 69C24.8406 71 25.1222 75 27.9807 75C30.8393 75 31.229 71 30.9042 69" stroke="white" stroke-width="2" stroke-linecap="round"/>
</svg>
