<svg width="245" height="291" viewBox="0 0 245 291" fill="none" xmlns="http://www.w3.org/2000/svg">
<path d="M201.1 138.7C201 137.7 200.6 136.2 200.3 135.2C200.1 134.4 199.9 133.6 199.5 132.8C198.7 131 197.9 129.2 197 127.4C196.1 125.7 195.2 124 194.3 122.2C193.3 120.1 192.3 118 191.5 115.8C191 114.4 190.6 112.9 190.3 111.4C190.1 110.5 190.1 109.5 190 108.6C190 107.3 189.9 106 190.2 104.7C190.4 103.9 190.3 103.1 190.4 102.3C190.6 100.8 190.9 99.2 190.9 97.7C191 95.6 191.2 93.5 190.7 91.4C190.5 90.5 190.3 89.7 189.9 88.9C189 87.1 187.7 85.7 185.9 84.8C184.2 83.9 182.4 83.4 180.5 83.1C179.5 82.9 178.4 82.8 177.4 82.6C176.1 82.4 174.7 82.2 173.4 82C172.6 81.9 171.8 81.7 171 81.5C170 81.3 169.1 81 168.2 80.7C165.9 79.9 164.1 78.5 162.5 76.7C161.2 75.1 160.3 73.3 159.3 71.5C158.1 69.3 156.7 67.3 154.8 65.7C152.9 64.1 150.8 62.9 148.5 62.1C147.1 61.6 145.7 61.3 144.3 61.2C142.3 61 140.2 61.2 138.3 61.7C136.8 62.1 135.3 62.7 134 63.4C131.9 64.6 130.1 66 128.7 67.8C128.4 68.2 128 68.6 127.7 69.1C127.3 69.7 126.4 69.7 125.8 69.3C124.9 68.6 123.9 67.9 122.9 67.2C121.1 66 119.2 65.1 117.2 64.3C116.3 64 115.4 63.6 114.4 63.3C113.5 63 112.6 62.8 111.7 62.6C111.1 62.5 110.4 62.3 109.7 62.2C108.7 62.1 107.7 61.9 106.7 61.8C105.6 61.7 104.6 61.7 103.5 61.7C102.5 61.7 101.6 61.7 100.6 61.8C99.6002 61.9 98.7002 62.1 97.7002 62.2C96.6002 62.4 95.6002 62.5 94.5002 62.8C93.5002 63.1 92.5002 63.4 91.5002 63.8C90.3002 64.2 89.0002 64.7 87.9002 65.2C84.6002 66.8 81.6002 68.9 79.0002 71.4C77.4002 73 75.9002 74.7 74.6002 76.5C73.6002 77.9 72.6002 79.3 71.6002 80.7C70.6002 82.1 69.7002 83.6 68.6002 85C67.2002 86.9 65.8002 88.9 64.3002 90.7C61.8002 93.7 58.8002 96.3 55.5002 98.6C54.6002 99.2 53.7002 99.8 52.9002 100.5C49.5002 103.1 46.1002 105.7 44.4002 109.6C43.9002 110.8 43.5002 112.1 43.5002 113.4C43.4002 114.6 43.4002 115.9 43.7002 117.2C43.9002 118.5 44.3002 119.8 44.7002 121C45.3002 122.9 46.2002 124.7 47.2002 126.5C48.7002 129.3 50.3002 132 51.7002 134.8C52.4002 136 52.9002 137.3 53.4002 138.7C53.8002 139.8 54.1002 140.9 54.4002 142C54.5002 142.5 54.7002 143.2 54.7002 143.7C54.8002 145 54.8002 146.3 54.8002 147.5C54.8002 148.6 54.6002 149.7 54.5002 150.8C54.4002 151.3 54.3002 152.2 54.2002 152.8C54.0002 153.8 53.7002 154.8 53.5002 155.9C53.4002 156.4 53.3002 156.8 53.2002 157.3C53.1002 157.9 53.0002 158.5 52.9002 159.1C52.8002 159.5 52.7002 160 52.7002 160.4C52.5002 161.3 52.3002 162.1 52.3002 163C52.2002 164.4 52.1002 165.8 52.3002 167.2C52.4002 167.9 52.4002 168.6 52.6002 169.3C52.9002 170.3 53.2002 171.2 53.6002 172.2C54.5002 174.1 55.7002 175.8 57.1002 177.4C58.7002 179.1 60.5002 180.6 62.5002 181.9C64.1002 182.9 65.7002 183.9 67.4002 184.7C68.5002 185.2 69.6002 185.7 70.7002 186.2C71.6002 186.6 72.5002 186.9 73.4002 187.3C74.5002 187.7 75.7002 188.2 76.9002 188.6C77.9002 189 79.0002 189.3 80.1002 189.6C80.8002 189.8 81.5002 190 82.2002 190.2C83.1002 190.4 84.0002 190.6 84.9002 190.8C86.0002 191 87.0002 191.3 88.1002 191.5C88.9002 191.7 89.7002 191.8 90.5002 191.9C92.1002 192.1 93.7002 192.4 95.4002 192.6C96.5002 192.7 97.5002 192.8 98.6002 192.9C100.4 193 102.2 193 104 193C104.7 193 105.4 193 106.1 193C107.5 193 108.9 193 110.3 192.8C111.4 192.6 112.6 192.7 113.7 192.5C114.9 192.3 116.1 192.2 117.3 192C118.1 191.9 118.8 191.8 119.6 191.6C120.2 191.5 120.9 191.4 121.5 191.3C121.9 191.2 122.2 191.2 122.6 191.1C123.1 191 123.7 190.9 124.2 190.8C124.8 190.7 125.4 190.5 126.1 190.4C126.7 190.3 127.2 190.2 127.8 190.1C128.7 189.9 129.6 189.6 130.6 189.4C131.3 189.2 131.9 189.1 132.6 188.9C133.4 188.7 134.3 188.5 135.1 188.3C136 188.1 136.9 187.9 137.8 187.7C138.2 187.6 138.7 187.5 139.1 187.4C139.7 187.3 140.2 187.1 140.8 187C141.3 186.9 141.8 186.8 142.3 186.7C143.3 186.4 144.4 186.2 145.4 185.9C146.3 185.7 147.2 185.5 148.1 185.3C148.7 185.2 149.2 185 149.8 184.9C150.3 184.8 150.8 184.7 151.3 184.5C151.9 184.4 152.4 184.2 153 184.1C153.5 184 154 183.9 154.5 183.8C155.4 183.6 156.3 183.3 157.2 183.1C158.3 182.8 159.4 182.6 160.5 182.3C160.9 182.2 161.4 182.1 161.8 182C162.6 181.8 163.4 181.6 164.2 181.4C165.1 181.2 166 180.8 166.8 180.6C167.4 180.4 168 180.3 168.6 180.1C169.7 179.7 170.7 179.3 171.7 178.9C173.3 178.3 174.7 177.5 176.2 176.7C178.1 175.6 179.8 174.4 181.4 173C182.8 171.8 184 170.4 185.3 169.1C187.4 167 189.2 164.6 191 162.3C191.9 161.1 192.8 159.9 193.7 158.7C195.2 156.6 196.7 154.6 198.1 152.4C199 150.9 199.8 149.4 200.5 147.8C200.8 147 201.1 146.1 201.3 145.3C201.5 144.6 201.5 144 201.7 143.3C201.3 141.4 201.2 140.1 201.1 138.7ZM98.7002 84.1C97.9002 83.3 97.6002 82.4 97.7002 81.4C97.8002 80.5 98.1002 79.8 98.9002 79.3C99.5002 79 100 79 100.6 79.3C101.6 79.9 101.9 80.8 101.9 82C101.9 82.8 101.7 83.5 101.1 84.1C100.6 84.7 99.3002 84.7 98.7002 84.1ZM120.3 89.8C120.1 91 119.6 92.1 118.9 93.2C117.7 95 116.3 96.4 114.4 97.5C113.4 98 112.4 98.3 111.4 98.2C109.9 98.3 108.6 97.8 107.4 97C106.3 96.3 105.3 95.6 104.3 94.7C103.5 94 102.8 93.3 102.3 92.5C101.7 91.6 101.7 90.4 102.3 89.6C102.9 88.4 103.8 87.8 104.8 87.2C105.9 86.5 107.1 86 108.3 85.6C109.2 85.3 110.1 85.2 111 85C111.9 84.7 112.8 84.8 113.8 84.6C114.2 84.5 114.5 84.5 114.9 84.6C115.5 84.6 116.2 84.7 116.8 84.8C118.2 85.1 119.4 85.7 120 87.2C120.3 88 120.4 88.9 120.3 89.8ZM126 80.6C126 80.9 125.8 81.3 125.7 81.6C125.4 82.4 124.8 82.8 124 82.7C123.2 82.7 122.6 82.2 122.3 81.4C122.3 81.3 122.2 81.2 122.2 81.1C121.9 80.3 121.8 79.3 122.2 78.5C122.1 78.5 122.3 78.3 122.4 78.1C123.1 77.1 124.5 77.1 125.3 78C125.9 78.8 126.1 79.7 126 80.6Z" fill="#DBDBDB"/>
<path d="M150.3 59.9C150 60.5 150.5 60.9 150.6 61.1L151.9 61.8C154.7 63.1 157 65 159.1 67.7C159.9 68.8 160.5 69.9 161.1 71C161.5 71.6 161.8 72.3 162.2 72.9C163.1 74.4 164 76 165.5 77.1C166.7 78.1 168 78.8 169.4 79.2C170.3 79.5 171.1 79.7 172 79.8L172.4 79.9C173.3 80.1 174.2 80.2 175.2 80.3C175.3 80.3 175.4 80.3 175.5 80.3C176 80.3 176.3 79.8 176.5 79.7L176.6 79.6C177 78.6 177.4 77.6 177.7 76.6L178.3 74.5C178.4 74.1 178.5 73.7 178.6 73.3C178.7 72.8 178.9 72.2 179 71.7C179.1 71.3 179.2 70.9 179.2 70.5C179.2 70.1 179.3 69.8 179.4 69.4C179.7 67.4 179.8 65.3 179.9 63.3C179.8 62.5 179.7 61.3 179.7 60.1C179.7 59.9 179.6 59.6 179.6 59.3C179.5 58.5 179.4 57.6 179.3 57C179.1 55.8 178.9 54.6 178.5 53.3C178.4 53 178.3 52.6 178.2 52.3C178 51.6 177.8 50.9 177.6 50.3C176.9 48.4 176.2 47 175.2 45.7C173.9 43.8 172.5 42.5 171 41.6C169.9 40.8 168.5 40.4 166.8 40.1C165.3 39.9 164 39.9 162.7 40.2C161.5 40.5 160.4 40.8 159.2 41.3C156.4 42.6 154 44.9 152.4 47.9C151.9 48.7 151.6 49.6 151.3 50.4L151.2 50.7C151.1 50.9 151 51.2 151 51.4C150.8 51.8 150.7 52.3 150.6 52.7C150.4 53.6 150.3 54.5 150.2 55.5C150.1 56.3 150.1 57.2 150.1 58C150.1 58.3 150.1 58.6 150.1 58.9C150.3 59.3 150.3 59.6 150.3 59.9Z" fill="#DBDBDB"/>
<path d="M46.6001 65.8C46.7001 66.5 46.8001 67.3 47.0001 68C47.1001 68.7 47.4001 69.4 47.6001 70.1C47.7001 70.4 47.8001 70.6 47.9001 70.9C48.6001 72.7 49.3001 74.1 50.3001 75.4C51.8001 77.5 53.3001 79.1 54.8001 80.5C55.2001 80.9 55.6001 81.2 56.1001 81.6C56.7001 82.2 57.4001 82.7 58.1001 83.2C59.8001 84.4 61.7001 85.8 63.9001 87.3C64.2001 87.5 64.4001 87.7 64.7001 87.7H64.8001C65.1001 87.6 65.3001 87.4 65.6001 87L65.8001 86.7C67.0001 85.2 68.1001 83.6 69.2001 82C71.0001 79.4 72.8001 76.8 74.7001 74.4C76.2001 72.5 77.8001 70.8 79.5001 69.3C80.3001 68.5 81.6001 67.4 83.0001 66.6C83.6001 66.2 84.2001 65.8 84.9001 65.4C85.3001 65.1 85.7001 64.9 86.2001 64.6L86.4001 64.5V64C86.4001 63.5 86.2001 63.2 86.0001 62.8C85.9001 62.7 85.9001 62.5 85.8001 62.4C84.5001 59.8 82.7001 57.6 80.4001 55.5C77.8001 53.2 74.6001 51.4 71.2001 50.4C70.9001 50.3 70.7001 50.3 70.4001 50.2C69.9001 50 69.3001 49.9 68.8001 49.8C67.8001 49.6 66.7001 49.5 65.7001 49.5C63.6001 49.4 60.8001 49.4 58.1001 50.3C56.6001 50.7 55.3001 51.4 54.1001 51.9C50.5001 53.8 48.2001 56.5 47.1001 60.1C46.8001 61.3 46.6001 62.4 46.6001 63.4V65.3V65.8Z" fill="#DBDBDB"/>
<path d="M102.757 123.083V142.258H106.667V146.958H102.757V154.486H97.724V146.958H83V142.299C85.4401 139.11 87.8387 135.908 90.1956 132.691C92.5526 129.475 94.9511 126.272 97.3913 123.083H102.757ZM97.724 142.341V132.65C97.724 132.456 97.724 132.109 97.724 131.61C97.7517 131.111 97.7795 130.584 97.8072 130.029L88.6567 142.341H97.724Z" fill="white"/>
<path d="M130.861 139.055C130.861 141.8 130.57 144.185 129.988 146.209C129.406 148.206 128.588 149.869 127.534 151.2C126.508 152.503 125.288 153.474 123.874 154.112C122.46 154.75 120.921 155.068 119.257 155.068C117.649 155.068 116.137 154.75 114.723 154.112C113.337 153.474 112.117 152.503 111.063 151.2C110.037 149.869 109.233 148.206 108.651 146.209C108.068 144.185 107.777 141.8 107.777 139.055C107.777 136.282 108.068 133.897 108.651 131.901C109.233 129.877 110.037 128.213 111.063 126.91C112.117 125.579 113.337 124.594 114.723 123.957C116.137 123.319 117.649 123 119.257 123C120.921 123 122.46 123.319 123.874 123.957C125.288 124.594 126.508 125.579 127.534 126.91C128.588 128.213 129.406 129.877 129.988 131.901C130.57 133.897 130.861 136.282 130.861 139.055ZM125.038 139.055C125.038 136.837 124.872 135.007 124.539 133.565C124.234 132.095 123.818 130.944 123.291 130.112C122.765 129.253 122.141 128.657 121.42 128.324C120.727 127.963 120.006 127.783 119.257 127.783C118.536 127.783 117.829 127.963 117.136 128.324C116.47 128.657 115.874 129.253 115.347 130.112C114.82 130.944 114.391 132.095 114.058 133.565C113.753 135.007 113.6 136.837 113.6 139.055C113.6 141.246 113.753 143.062 114.058 144.504C114.391 145.946 114.82 147.096 115.347 147.956C115.874 148.816 116.47 149.412 117.136 149.744C117.829 150.077 118.536 150.244 119.257 150.244C120.006 150.244 120.727 150.077 121.42 149.744C122.141 149.412 122.765 148.816 123.291 147.956C123.818 147.096 124.234 145.946 124.539 144.504C124.872 143.062 125.038 141.246 125.038 139.055Z" fill="white"/>
<path d="M152.311 123.083V142.258H156.221V146.958H152.311V154.486H147.278V146.958H132.554V142.299C134.995 139.11 137.393 135.908 139.75 132.691C142.107 129.475 144.506 126.272 146.946 123.083H152.311ZM147.278 142.341V132.65C147.278 132.456 147.278 132.109 147.278 131.61C147.306 131.111 147.334 130.584 147.362 130.029L138.211 142.341H147.278Z" fill="white"/>
<path d="M78.0572 98C77.8406 100 78.1222 104 80.9807 104C83.8393 104 84.229 100 83.9042 98" stroke="white" stroke-width="2" stroke-linecap="round"/>
<path d="M66.0572 109C65.8406 111 66.1222 115 68.9807 115C71.8393 115 72.229 111 71.9042 109" stroke="white" stroke-width="2" stroke-linecap="round"/>
</svg>
