<svg width="245" height="291" viewBox="0 0 245 291" fill="none" xmlns="http://www.w3.org/2000/svg">
<path d="M201.1 138.7C201 137.7 200.6 136.2 200.3 135.2C200.1 134.4 199.9 133.6 199.5 132.8C198.7 131 197.9 129.2 197 127.4C196.1 125.7 195.2 124 194.3 122.2C193.3 120.1 192.3 118 191.5 115.8C191 114.4 190.6 112.9 190.3 111.4C190.1 110.5 190.1 109.5 190 108.6C190 107.3 189.9 106 190.2 104.7C190.4 103.9 190.3 103.1 190.4 102.3C190.6 100.8 190.9 99.2 190.9 97.7C191 95.6 191.2 93.5 190.7 91.4C190.5 90.5 190.3 89.7 189.9 88.9C189 87.1 187.7 85.7 185.9 84.8C184.2 83.9 182.4 83.4 180.5 83.1C179.5 82.9 178.4 82.8 177.4 82.6C176.1 82.4 174.7 82.2 173.4 82C172.6 81.9 171.8 81.7 171 81.5C170 81.3 169.1 81 168.2 80.7C165.9 79.9 164.1 78.5 162.5 76.7C161.2 75.1 160.3 73.3 159.3 71.5C158.1 69.3 156.7 67.3 154.8 65.7C152.9 64.1 150.8 62.9 148.5 62.1C147.1 61.6 145.7 61.3 144.3 61.2C142.3 61 140.2 61.2 138.3 61.7C136.8 62.1 135.3 62.7 134 63.4C131.9 64.6 130.1 66 128.7 67.8C128.4 68.2 128 68.6 127.7 69.1C127.3 69.7 126.4 69.7 125.8 69.3C124.9 68.6 123.9 67.9 122.9 67.2C121.1 66 119.2 65.1 117.2 64.3C116.3 64 115.4 63.6 114.4 63.3C113.5 63 112.6 62.8 111.7 62.6C111.1 62.5 110.4 62.3 109.7 62.2C108.7 62.1 107.7 61.9 106.7 61.8C105.6 61.7 104.6 61.7 103.5 61.7C102.5 61.7 101.6 61.7 100.6 61.8C99.6002 61.9 98.7002 62.1 97.7002 62.2C96.6002 62.4 95.6002 62.5 94.5002 62.8C93.5002 63.1 92.5002 63.4 91.5002 63.8C90.3002 64.2 89.0002 64.7 87.9002 65.2C84.6002 66.8 81.6002 68.9 79.0002 71.4C77.4002 73 75.9002 74.7 74.6002 76.5C73.6002 77.9 72.6002 79.3 71.6002 80.7C70.6002 82.1 69.7002 83.6 68.6002 85C67.2002 86.9 65.8002 88.9 64.3002 90.7C61.8002 93.7 58.8002 96.3 55.5002 98.6C54.6002 99.2 53.7002 99.8 52.9002 100.5C49.5002 103.1 46.1002 105.7 44.4002 109.6C43.9002 110.8 43.5002 112.1 43.5002 113.4C43.4002 114.6 43.4002 115.9 43.7002 117.2C43.9002 118.5 44.3002 119.8 44.7002 121C45.3002 122.9 46.2002 124.7 47.2002 126.5C48.7002 129.3 50.3002 132 51.7002 134.8C52.4002 136 52.9002 137.3 53.4002 138.7C53.8002 139.8 54.1002 140.9 54.4002 142C54.5002 142.5 54.7002 143.2 54.7002 143.7C54.8002 145 54.8002 146.3 54.8002 147.5C54.8002 148.6 54.6002 149.7 54.5002 150.8C54.4002 151.3 54.3002 152.2 54.2002 152.8C54.0002 153.8 53.7002 154.8 53.5002 155.9C53.4002 156.4 53.3002 156.8 53.2002 157.3C53.1002 157.9 53.0002 158.5 52.9002 159.1C52.8002 159.5 52.7002 160 52.7002 160.4C52.5002 161.3 52.3002 162.1 52.3002 163C52.2002 164.4 52.1002 165.8 52.3002 167.2C52.4002 167.9 52.4002 168.6 52.6002 169.3C52.9002 170.3 53.2002 171.2 53.6002 172.2C54.5002 174.1 55.7002 175.8 57.1002 177.4C58.7002 179.1 60.5002 180.6 62.5002 181.9C64.1002 182.9 65.7002 183.9 67.4002 184.7C68.5002 185.2 69.6002 185.7 70.7002 186.2C71.6002 186.6 72.5002 186.9 73.4002 187.3C74.5002 187.7 75.7002 188.2 76.9002 188.6C77.9002 189 79.0002 189.3 80.1002 189.6C80.8002 189.8 81.5002 190 82.2002 190.2C83.1002 190.4 84.0002 190.6 84.9002 190.8C86.0002 191 87.0002 191.3 88.1002 191.5C88.9002 191.7 89.7002 191.8 90.5002 191.9C92.1002 192.1 93.7002 192.4 95.4002 192.6C96.5002 192.7 97.5002 192.8 98.6002 192.9C100.4 193 102.2 193 104 193C104.7 193 105.4 193 106.1 193C107.5 193 108.9 193 110.3 192.8C111.4 192.6 112.6 192.7 113.7 192.5C114.9 192.3 116.1 192.2 117.3 192C118.1 191.9 118.8 191.8 119.6 191.6C120.2 191.5 120.9 191.4 121.5 191.3C121.9 191.2 122.2 191.2 122.6 191.1C123.1 191 123.7 190.9 124.2 190.8C124.8 190.7 125.4 190.5 126.1 190.4C126.7 190.3 127.2 190.2 127.8 190.1C128.7 189.9 129.6 189.6 130.6 189.4C131.3 189.2 131.9 189.1 132.6 188.9C133.4 188.7 134.3 188.5 135.1 188.3C136 188.1 136.9 187.9 137.8 187.7C138.2 187.6 138.7 187.5 139.1 187.4C139.7 187.3 140.2 187.1 140.8 187C141.3 186.9 141.8 186.8 142.3 186.7C143.3 186.4 144.4 186.2 145.4 185.9C146.3 185.7 147.2 185.5 148.1 185.3C148.7 185.2 149.2 185 149.8 184.9C150.3 184.8 150.8 184.7 151.3 184.5C151.9 184.4 152.4 184.2 153 184.1C153.5 184 154 183.9 154.5 183.8C155.4 183.6 156.3 183.3 157.2 183.1C158.3 182.8 159.4 182.6 160.5 182.3C160.9 182.2 161.4 182.1 161.8 182C162.6 181.8 163.4 181.6 164.2 181.4C165.1 181.2 166 180.8 166.8 180.6C167.4 180.4 168 180.3 168.6 180.1C169.7 179.7 170.7 179.3 171.7 178.9C173.3 178.3 174.7 177.5 176.2 176.7C178.1 175.6 179.8 174.4 181.4 173C182.8 171.8 184 170.4 185.3 169.1C187.4 167 189.2 164.6 191 162.3C191.9 161.1 192.8 159.9 193.7 158.7C195.2 156.6 196.7 154.6 198.1 152.4C199 150.9 199.8 149.4 200.5 147.8C200.8 147 201.1 146.1 201.3 145.3C201.5 144.6 201.5 144 201.7 143.3C201.3 141.4 201.2 140.1 201.1 138.7ZM98.7002 84.1C97.9002 83.3 97.6002 82.4 97.7002 81.4C97.8002 80.5 98.1002 79.8 98.9002 79.3C99.5002 79 100 79 100.6 79.3C101.6 79.9 101.9 80.8 101.9 82C101.9 82.8 101.7 83.5 101.1 84.1C100.6 84.7 99.3002 84.7 98.7002 84.1ZM120.3 89.8C120.1 91 119.6 92.1 118.9 93.2C117.7 95 116.3 96.4 114.4 97.5C113.4 98 112.4 98.3 111.4 98.2C109.9 98.3 108.6 97.8 107.4 97C106.3 96.3 105.3 95.6 104.3 94.7C103.5 94 102.8 93.3 102.3 92.5C101.7 91.6 101.7 90.4 102.3 89.6C102.9 88.4 103.8 87.8 104.8 87.2C105.9 86.5 107.1 86 108.3 85.6C109.2 85.3 110.1 85.2 111 85C111.9 84.7 112.8 84.8 113.8 84.6C114.2 84.5 114.5 84.5 114.9 84.6C115.5 84.6 116.2 84.7 116.8 84.8C118.2 85.1 119.4 85.7 120 87.2C120.3 88 120.4 88.9 120.3 89.8ZM126 80.6C126 80.9 125.8 81.3 125.7 81.6C125.4 82.4 124.8 82.8 124 82.7C123.2 82.7 122.6 82.2 122.3 81.4C122.3 81.3 122.2 81.2 122.2 81.1C121.9 80.3 121.8 79.3 122.2 78.5C122.1 78.5 122.3 78.3 122.4 78.1C123.1 77.1 124.5 77.1 125.3 78C125.9 78.8 126.1 79.7 126 80.6Z" fill="#9986F7"/>
<path d="M150.3 59.9C150 60.5 150.5 60.9 150.6 61.1L151.9 61.8C154.7 63.1 157 65 159.1 67.7C159.9 68.8 160.5 69.9 161.1 71C161.5 71.6 161.8 72.3 162.2 72.9C163.1 74.4 164 76 165.5 77.1C166.7 78.1 168 78.8 169.4 79.2C170.3 79.5 171.1 79.7 172 79.8L172.4 79.9C173.3 80.1 174.2 80.2 175.2 80.3C175.3 80.3 175.4 80.3 175.5 80.3C176 80.3 176.3 79.8 176.5 79.7L176.6 79.6C177 78.6 177.4 77.6 177.7 76.6L178.3 74.5C178.4 74.1 178.5 73.7 178.6 73.3C178.7 72.8 178.9 72.2 179 71.7C179.1 71.3 179.2 70.9 179.2 70.5C179.2 70.1 179.3 69.8 179.4 69.4C179.7 67.4 179.8 65.3 179.9 63.3C179.8 62.5 179.7 61.3 179.7 60.1C179.7 59.9 179.6 59.6 179.6 59.3C179.5 58.5 179.4 57.6 179.3 57C179.1 55.8 178.9 54.6 178.5 53.3C178.4 53 178.3 52.6 178.2 52.3C178 51.6 177.8 50.9 177.6 50.3C176.9 48.4 176.2 47 175.2 45.7C173.9 43.8 172.5 42.5 171 41.6C169.9 40.8 168.5 40.4 166.8 40.1C165.3 39.9 164 39.9 162.7 40.2C161.5 40.5 160.4 40.8 159.2 41.3C156.4 42.6 154 44.9 152.4 47.9C151.9 48.7 151.6 49.6 151.3 50.4L151.2 50.7C151.1 50.9 151 51.2 151 51.4C150.8 51.8 150.7 52.3 150.6 52.7C150.4 53.6 150.3 54.5 150.2 55.5C150.1 56.3 150.1 57.2 150.1 58C150.1 58.3 150.1 58.6 150.1 58.9C150.3 59.3 150.3 59.6 150.3 59.9Z" fill="#9986F7"/>
<path d="M46.6001 65.8C46.7001 66.5 46.8001 67.3 47.0001 68C47.1001 68.7 47.4001 69.4 47.6001 70.1C47.7001 70.4 47.8001 70.6 47.9001 70.9C48.6001 72.7 49.3001 74.1 50.3001 75.4C51.8001 77.5 53.3001 79.1 54.8001 80.5C55.2001 80.9 55.6001 81.2 56.1001 81.6C56.7001 82.2 57.4001 82.7 58.1001 83.2C59.8001 84.4 61.7001 85.8 63.9001 87.3C64.2001 87.5 64.4001 87.7 64.7001 87.7H64.8001C65.1001 87.6 65.3001 87.4 65.6001 87L65.8001 86.7C67.0001 85.2 68.1001 83.6 69.2001 82C71.0001 79.4 72.8001 76.8 74.7001 74.4C76.2001 72.5 77.8001 70.8 79.5001 69.3C80.3001 68.5 81.6001 67.4 83.0001 66.6C83.6001 66.2 84.2001 65.8 84.9001 65.4C85.3001 65.1 85.7001 64.9 86.2001 64.6L86.4001 64.5V64C86.4001 63.5 86.2001 63.2 86.0001 62.8C85.9001 62.7 85.9001 62.5 85.8001 62.4C84.5001 59.8 82.7001 57.6 80.4001 55.5C77.8001 53.2 74.6001 51.4 71.2001 50.4C70.9001 50.3 70.7001 50.3 70.4001 50.2C69.9001 50 69.3001 49.9 68.8001 49.8C67.8001 49.6 66.7001 49.5 65.7001 49.5C63.6001 49.4 60.8001 49.4 58.1001 50.3C56.6001 50.7 55.3001 51.4 54.1001 51.9C50.5001 53.8 48.2001 56.5 47.1001 60.1C46.8001 61.3 46.6001 62.4 46.6001 63.4V65.3V65.8Z" fill="#9986F7"/>
<path d="M64.4369 145.036L64.4314 125.758L68.5084 125.757L68.5129 141.66L76.3429 141.658L76.3439 145.033L64.4369 145.036ZM92.7694 137.63C92.7697 138.854 92.599 139.943 92.2573 140.897C91.9336 141.851 91.4568 142.661 90.827 143.327C90.2152 143.976 89.4683 144.471 88.5864 144.813C87.7045 145.137 86.7056 145.3 85.5896 145.3C84.5636 145.3 83.6095 145.139 82.7274 144.815C81.8633 144.473 81.1162 143.978 80.486 143.33C79.8558 142.665 79.3606 141.855 79.0003 140.901C78.658 139.947 78.4867 138.858 78.4864 137.634C78.4859 135.996 78.7735 134.619 79.3492 133.503C79.9249 132.369 80.7526 131.504 81.8324 130.91C82.9123 130.316 84.1902 130.018 85.6662 130.018C87.0522 130.018 88.2763 130.314 89.3384 130.908C90.4006 131.502 91.2379 132.365 91.8502 133.499C92.4625 134.615 92.7689 135.992 92.7694 137.63ZM82.5904 137.633C82.5907 138.605 82.6899 139.424 82.8881 140.09C83.1043 140.738 83.4374 141.233 83.8875 141.574C84.3376 141.898 84.9226 142.06 85.6426 142.06C86.3626 142.06 86.9386 141.898 87.3705 141.573C87.8204 141.231 88.1443 140.736 88.3421 140.088C88.5579 139.422 88.6657 138.603 88.6654 137.631C88.6651 136.659 88.5569 135.849 88.3407 135.201C88.1425 134.553 87.8183 134.067 87.3683 133.743C86.9182 133.42 86.3331 133.258 85.6131 133.258C84.5511 133.258 83.7772 133.628 83.2914 134.366C82.8236 135.086 82.59 136.175 82.5904 137.633ZM102.14 129.986C104.12 129.986 105.632 130.417 106.676 131.281C107.739 132.127 108.27 133.431 108.27 135.195L108.273 145.023L105.465 145.024L104.682 143.027L104.574 143.027C104.16 143.549 103.728 143.981 103.278 144.323C102.846 144.665 102.342 144.908 101.766 145.052C101.208 145.215 100.515 145.296 99.6874 145.296C98.8234 145.296 98.0403 145.134 97.3382 144.811C96.6541 144.469 96.114 143.956 95.7178 143.272C95.3216 142.57 95.1233 141.688 95.123 140.626C95.1226 139.06 95.6712 137.908 96.769 137.17C97.8668 136.413 99.5137 135.999 101.71 135.926L104.275 135.845L104.274 135.197C104.274 134.423 104.067 133.856 103.653 133.496C103.257 133.136 102.699 132.956 101.979 132.956C101.259 132.956 100.557 133.065 99.8729 133.281C99.189 133.479 98.505 133.731 97.8211 134.037L96.4974 131.311C97.2892 130.897 98.1621 130.572 99.1161 130.338C100.088 130.104 101.096 129.987 102.14 129.986ZM102.709 138.248C101.413 138.284 100.513 138.519 100.01 138.951C99.5057 139.383 99.2538 139.95 99.254 140.652C99.2542 141.264 99.4343 141.705 99.7944 141.975C100.154 142.227 100.623 142.353 101.199 142.353C102.063 142.352 102.791 142.1 103.385 141.596C103.979 141.074 104.276 140.345 104.276 139.409L104.275 138.194L102.709 138.248ZM117.062 145.291C115.424 145.291 114.083 144.653 113.039 143.375C112.012 142.079 111.499 140.181 111.498 137.679C111.497 135.159 112.019 133.25 113.062 131.954C114.106 130.658 115.474 130.009 117.166 130.009C117.868 130.009 118.489 130.108 119.029 130.305C119.569 130.485 120.028 130.737 120.406 131.061C120.802 131.385 121.135 131.754 121.406 132.168L121.541 132.168C121.486 131.88 121.423 131.466 121.351 130.926C121.279 130.368 121.243 129.801 121.243 129.225L121.241 124.5L125.264 124.499L125.27 145.019L122.192 145.019L121.409 143.103L121.247 143.103C120.995 143.499 120.671 143.868 120.275 144.21C119.897 144.534 119.447 144.795 118.925 144.993C118.403 145.192 117.782 145.291 117.062 145.291ZM118.465 142.078C119.581 142.077 120.364 141.753 120.814 141.105C121.264 140.439 121.498 139.449 121.515 138.135L121.515 137.703C121.515 136.263 121.289 135.165 120.839 134.409C120.407 133.653 119.597 133.275 118.409 133.276C117.527 133.276 116.834 133.663 116.33 134.437C115.826 135.193 115.575 136.291 115.575 137.731C115.576 139.171 115.828 140.26 116.332 140.998C116.836 141.718 117.547 142.078 118.465 142.078ZM133.496 130.274L133.5 145.016L129.477 145.017L129.473 130.275L133.496 130.274ZM131.496 124.497C132.09 124.497 132.603 124.64 133.035 124.928C133.467 125.198 133.684 125.711 133.684 126.467C133.684 127.205 133.468 127.718 133.036 128.006C132.604 128.294 132.091 128.439 131.497 128.439C130.885 128.439 130.363 128.295 129.931 128.007C129.517 127.719 129.31 127.206 129.31 126.468C129.31 125.712 129.516 125.199 129.93 124.929C130.362 124.641 130.884 124.497 131.496 124.497ZM146.069 130.001C147.653 130 148.923 130.432 149.877 131.296C150.831 132.141 151.308 133.509 151.309 135.399L151.312 145.011L147.289 145.012L147.286 136.399C147.286 135.337 147.097 134.545 146.719 134.023C146.34 133.484 145.737 133.214 144.909 133.214C143.685 133.214 142.848 133.638 142.399 134.484C141.949 135.312 141.724 136.509 141.725 138.075L141.727 145.014L137.704 145.015L137.699 130.273L140.777 130.272L141.318 132.162L141.534 132.162C141.858 131.658 142.254 131.253 142.722 130.947C143.19 130.622 143.712 130.388 144.287 130.244C144.863 130.082 145.457 130.001 146.069 130.001ZM160.224 129.997C161.124 129.996 161.934 130.176 162.654 130.536C163.374 130.896 163.986 131.435 164.49 132.155L164.598 132.155L164.922 130.265L168.324 130.264L168.328 145.033C168.328 146.437 168.05 147.616 167.492 148.57C166.952 149.525 166.133 150.245 165.035 150.731C163.938 151.235 162.579 151.488 160.959 151.488C159.915 151.489 158.943 151.426 158.043 151.3C157.161 151.174 156.297 150.95 155.45 150.626L155.45 147.413C156.062 147.665 156.674 147.872 157.286 148.033C157.916 148.213 158.555 148.339 159.203 148.411C159.869 148.501 160.535 148.545 161.201 148.545C162.245 148.545 163.019 148.266 163.523 147.708C164.044 147.149 164.305 146.312 164.305 145.196L164.305 144.899C164.305 144.593 164.314 144.278 164.332 143.954C164.367 143.63 164.394 143.342 164.412 143.09L164.304 143.09C163.8 143.865 163.198 144.423 162.496 144.765C161.794 145.107 161.002 145.278 160.12 145.279C158.374 145.279 157.006 144.613 156.015 143.282C155.043 141.932 154.556 140.06 154.556 137.666C154.555 136.046 154.78 134.669 155.23 133.535C155.679 132.383 156.327 131.51 157.173 130.915C158.037 130.303 159.054 129.997 160.224 129.997ZM161.493 133.263C160.863 133.263 160.333 133.435 159.901 133.777C159.487 134.101 159.172 134.596 158.956 135.262C158.758 135.91 158.659 136.729 158.66 137.719C158.66 139.195 158.894 140.302 159.363 141.04C159.831 141.76 160.56 142.119 161.55 142.119C162.072 142.119 162.522 142.056 162.9 141.93C163.278 141.786 163.584 141.561 163.818 141.255C164.07 140.93 164.259 140.516 164.384 140.012C164.51 139.508 164.573 138.896 164.573 138.176L164.573 137.69C164.572 136.628 164.464 135.773 164.248 135.125C164.032 134.477 163.699 134.01 163.249 133.722C162.798 133.416 162.213 133.263 161.493 133.263ZM174.668 145.355C173.966 145.356 173.363 145.167 172.859 144.789C172.355 144.411 172.102 143.808 172.102 142.98C172.102 142.098 172.354 141.486 172.858 141.144C173.362 140.784 173.965 140.604 174.667 140.603C175.351 140.603 175.936 140.783 176.422 141.143C176.908 141.485 177.151 142.097 177.151 142.979C177.151 143.807 176.909 144.41 176.423 144.788C175.937 145.166 175.352 145.355 174.668 145.355ZM182.525 145.353C181.823 145.353 181.22 145.165 180.716 144.787C180.212 144.409 179.96 143.806 179.96 142.978C179.959 142.096 180.211 141.484 180.715 141.142C181.219 140.782 181.822 140.601 182.524 140.601C183.208 140.601 183.793 140.781 184.279 141.141C184.765 141.482 185.008 142.094 185.009 142.976C185.009 143.804 184.766 144.407 184.28 144.786C183.794 145.164 183.209 145.353 182.525 145.353Z" fill="white"/>
<path d="M130.208 89.5417C135.915 89.5417 140.542 84.9153 140.542 79.2083C140.542 73.5014 135.915 68.875 130.208 68.875C124.501 68.875 119.875 73.5014 119.875 79.2083C119.875 84.9153 124.501 89.5417 130.208 89.5417Z" stroke="#D5D5D5" stroke-width="2" stroke-linecap="round" stroke-linejoin="round"/>
<path d="M143.125 92.125L137.506 86.5063" stroke="#D5D5D5" stroke-width="2" stroke-linecap="round" stroke-linejoin="round"/>
</svg>
