<?xml version="1.0" encoding="utf-8"?>
<!-- Generator: Adobe Illustrator 26.2.0, SVG Export Plug-In . SVG Version: 6.00 Build 0)  -->
<svg version="1.1" id="레이어_1" xmlns="http://www.w3.org/2000/svg" xmlns:xlink="http://www.w3.org/1999/xlink" x="0px"
	 y="0px" viewBox="0 0 244.8 290.4" style="enable-background:new 0 0 244.8 290.4;" xml:space="preserve">
<style type="text/css">
	.st0{fill:none;stroke:#000000;stroke-miterlimit:10;}
	.st1{stroke:#000000;stroke-miterlimit:10;}
</style>
<path id="body" d="M201.1,138.7c-0.1-1-0.5-2.5-0.8-3.5c-0.2-0.8-0.4-1.6-0.8-2.4c-0.8-1.8-1.6-3.6-2.5-5.4
	c-0.9-1.7-1.8-3.4-2.7-5.2c-1-2.1-2-4.2-2.8-6.4c-0.5-1.4-0.9-2.9-1.2-4.4c-0.2-0.9-0.2-1.9-0.3-2.8c0-1.3-0.1-2.6,0.2-3.9
	c0.2-0.8,0.1-1.6,0.2-2.4c0.2-1.5,0.5-3.1,0.5-4.6c0.1-2.1,0.3-4.2-0.2-6.3c-0.2-0.9-0.4-1.7-0.8-2.5c-0.9-1.8-2.2-3.2-4-4.1
	c-1.7-0.9-3.5-1.4-5.4-1.7c-1-0.2-2.1-0.3-3.1-0.5c-1.3-0.2-2.7-0.4-4-0.6c-0.8-0.1-1.6-0.3-2.4-0.5c-1-0.2-1.9-0.5-2.8-0.8
	c-2.3-0.8-4.1-2.2-5.7-4c-1.3-1.6-2.2-3.4-3.2-5.2c-1.2-2.2-2.6-4.2-4.5-5.8c-1.9-1.6-4-2.8-6.3-3.6c-1.4-0.5-2.8-0.8-4.2-0.9
	c-2-0.2-4.1,0-6,0.5c-1.5,0.4-3,1-4.3,1.7c-2.1,1.2-3.9,2.6-5.3,4.4c-0.3,0.4-0.7,0.8-1,1.3c-0.4,0.6-1.3,0.6-1.9,0.2
	c-0.9-0.7-1.9-1.4-2.9-2.1c-1.8-1.2-3.7-2.1-5.7-2.9c-0.9-0.3-1.8-0.7-2.8-1c-0.9-0.3-1.8-0.5-2.7-0.7c-0.6-0.1-1.3-0.3-2-0.4
	c-1-0.1-2-0.3-3-0.4c-1.1-0.1-2.1-0.1-3.2-0.1c-1,0-1.9,0-2.9,0.1c-1,0.1-1.9,0.3-2.9,0.4c-1.1,0.2-2.1,0.3-3.2,0.6
	c-1,0.3-2,0.6-3,1c-1.2,0.4-2.5,0.9-3.6,1.4c-3.3,1.6-6.3,3.7-8.9,6.2c-1.6,1.6-3.1,3.3-4.4,5.1c-1,1.4-2,2.8-3,4.2
	c-1,1.4-1.9,2.9-3,4.3c-1.4,1.9-2.8,3.9-4.3,5.7c-2.5,3-5.5,5.6-8.8,7.9c-0.9,0.6-1.8,1.2-2.6,1.9c-3.4,2.6-6.8,5.2-8.5,9.1
	c-0.5,1.2-0.9,2.5-0.9,3.8c-0.1,1.2-0.1,2.5,0.2,3.8c0.2,1.3,0.6,2.6,1,3.8c0.6,1.9,1.5,3.7,2.5,5.5c1.5,2.8,3.1,5.5,4.5,8.3
	c0.7,1.2,1.2,2.5,1.7,3.9c0.4,1.1,0.7,2.2,1,3.3c0.1,0.5,0.3,1.2,0.3,1.7c0.1,1.3,0.1,2.6,0.1,3.8c0,1.1-0.2,2.2-0.3,3.3
	c-0.1,0.5-0.2,1.4-0.3,2c-0.2,1-0.5,2-0.7,3.1c-0.1,0.5-0.2,0.9-0.3,1.4c-0.1,0.6-0.2,1.2-0.3,1.8c-0.1,0.4-0.2,0.9-0.2,1.3
	c-0.2,0.9-0.4,1.7-0.4,2.6c-0.1,1.4-0.2,2.8,0,4.2c0.1,0.7,0.1,1.4,0.3,2.1c0.3,1,0.6,1.9,1,2.9c0.9,1.9,2.1,3.6,3.5,5.2
	c1.6,1.7,3.4,3.2,5.4,4.5c1.6,1,3.2,2,4.9,2.8c1.1,0.5,2.2,1,3.3,1.5c0.9,0.4,1.8,0.7,2.7,1.1c1.1,0.4,2.3,0.9,3.5,1.3
	c1,0.4,2.1,0.7,3.2,1c0.7,0.2,1.4,0.4,2.1,0.6c0.9,0.2,1.8,0.4,2.7,0.6c1.1,0.2,2.1,0.5,3.2,0.7c0.8,0.2,1.6,0.3,2.4,0.4
	c1.6,0.2,3.2,0.5,4.9,0.7c1.1,0.1,2.1,0.2,3.2,0.3c1.8,0.1,3.6,0.1,5.4,0.1c0,0,0,0,0,0c0.7,0,1.4,0,2.1,0c1.4,0,2.8,0,4.2-0.2
	c1.1-0.2,2.3-0.1,3.4-0.3c1.2-0.2,2.4-0.3,3.6-0.5c0.8-0.1,1.5-0.2,2.3-0.4c0.6-0.1,1.3-0.2,1.9-0.3c0.4-0.1,0.7-0.1,1.1-0.2
	c0.5-0.1,1.1-0.2,1.6-0.3c0.6-0.1,1.2-0.3,1.9-0.4c0.6-0.1,1.1-0.2,1.7-0.3c0.9-0.2,1.8-0.5,2.8-0.7c0.7-0.2,1.3-0.3,2-0.5
	c0.8-0.2,1.7-0.4,2.5-0.6c0.9-0.2,1.8-0.4,2.7-0.6c0.4-0.1,0.9-0.2,1.3-0.3c0.6-0.1,1.1-0.3,1.7-0.4c0.5-0.1,1-0.2,1.5-0.3
	c1-0.3,2.1-0.5,3.1-0.8c0.9-0.2,1.8-0.4,2.7-0.6c0.6-0.1,1.1-0.3,1.7-0.4c0.5-0.1,1-0.2,1.5-0.4c0.6-0.1,1.1-0.3,1.7-0.4
	c0.5-0.1,1-0.2,1.5-0.3c0.9-0.2,1.8-0.5,2.7-0.7c1.1-0.3,2.2-0.5,3.3-0.8c0.4-0.1,0.9-0.2,1.3-0.3c0.8-0.2,1.6-0.4,2.4-0.6
	c0.9-0.2,1.8-0.6,2.6-0.8c0.6-0.2,1.2-0.3,1.8-0.5c1.1-0.4,2.1-0.8,3.1-1.2c1.6-0.6,3-1.4,4.5-2.2c1.9-1.1,3.6-2.3,5.2-3.7
	c1.4-1.2,2.6-2.6,3.9-3.9c2.1-2.1,3.9-4.5,5.7-6.8c0.9-1.2,1.8-2.4,2.7-3.6c1.5-2.1,3-4.1,4.4-6.3c0.9-1.5,1.7-3,2.4-4.6
	c0.3-0.8,0.6-1.7,0.8-2.5c0.2-0.7,0.2-1.3,0.4-2C201.3,141.4,201.2,140.1,201.1,138.7z M122.4,78.1c0.7-1,2.1-1,2.9-0.1
	c0.6,0.8,0.8,1.7,0.7,2.6c0,0.3-0.2,0.7-0.3,1c-0.3,0.8-0.9,1.2-1.7,1.1c-0.8,0-1.4-0.5-1.7-1.3c0-0.1-0.1-0.2-0.1-0.3
	c-0.3-0.8-0.4-1.8,0-2.6C122.1,78.5,122.3,78.3,122.4,78.1z M104.8,87.2c1.1-0.7,2.3-1.2,3.5-1.6c0.9-0.3,1.8-0.4,2.7-0.6
	c0.9-0.3,1.8-0.2,2.8-0.4c0.4-0.1,0.7-0.1,1.1,0c0.6,0,1.3,0.1,1.9,0.2c1.4,0.3,2.6,0.9,3.2,2.4c0.3,0.8,0.4,1.7,0.3,2.6
	c-0.2,1.2-0.7,2.3-1.4,3.4c-1.2,1.8-2.6,3.2-4.5,4.3c-1,0.5-2,0.8-3,0.7c-1.5,0.1-2.8-0.4-4-1.2c-1.1-0.7-2.1-1.4-3.1-2.3
	c-0.8-0.7-1.5-1.4-2-2.2c-0.6-0.9-0.6-2.1,0-2.9C102.9,88.4,103.8,87.8,104.8,87.2z M97.7,81.4c0.1-0.9,0.4-1.6,1.2-2.1
	c0.6-0.3,1.1-0.3,1.7,0c1,0.6,1.3,1.5,1.3,2.7c0,0.8-0.2,1.5-0.8,2.1c-0.5,0.6-1.8,0.6-2.4,0C97.9,83.3,97.6,82.4,97.7,81.4z"/>
<g id="text">
	<path d="M157,223.9c0-4.8,0-9.6,0-14.4c0-1.1,0-1.1,1.1-1.1c1.3,0,2.6,0,4,0c0.6,0,0.9,0.2,0.9,0.9c0,2.8,0,5.6,0,8.5
		c0,0.7,0.2,1,0.9,0.9c1.6-0.1,1.6,0.3,1.6-1.6c0-2.6,0-5.1,0-7.7c0-0.7,0.2-1.1,1-1c1.3,0.1,2.7,0,4,0c0.6,0,0.9,0.2,0.9,0.9
		c0,9.8,0,19.6,0,29.4c0,0.7-0.3,0.9-1,0.9c-4.1,0-8.3,0-12.4,0c-0.8,0-1-0.3-1-1C157,233.7,157,228.8,157,223.9z M162.9,229
		c0,1.1,0,2.2,0,3.3c0,1.6-0.3,1.5,1.5,1.5c0.7,0,1-0.2,1-1c0-2.3,0-4.6,0-6.9c0-1.8,0-1.7-1.7-1.7c-0.6,0-0.8,0.2-0.8,0.8
		C162.9,226.3,162.9,227.7,162.9,229z"/>
	<path d="M103.5,224c0,4.9,0,9.7,0,14.6c0,0.8-0.2,1-1,1c-4.1,0-8.2,0-12.3,0c-0.7,0-1-0.2-1-1c0-9.8,0-19.5,0-29.3
		c0-0.7,0.2-1,0.9-0.9c1.4,0,2.8,0,4.2,0c0.6,0,0.8,0.2,0.8,0.9c0,2.8,0,5.6,0,8.5c0,0.7,0.1,1,0.9,1c1.8-0.1,1.6,0.2,1.6-1.7
		c0-2.6,0-5.2,0-7.7c0-0.7,0.2-0.9,0.9-0.9c1.4,0,2.7,0,4.1,0c0.7,0,0.9,0.2,0.9,0.9C103.5,214.2,103.5,219.1,103.5,224z M95.2,229
		c0,1.1,0,2.1,0,3.2c0,1.7-0.3,1.6,1.7,1.6c0.7,0,0.9-0.2,0.9-0.9c0-2.3,0-4.7,0-7c0-2,0.2-1.7-1.8-1.7c-0.6,0-0.8,0.3-0.8,0.8
		C95.2,226.3,95.2,227.7,95.2,229z"/>
	<path d="M139.3,223.9c0-4.9,0-9.7,0-14.6c0-0.8,0.2-1,1-1c1.3,0.1,2.6,0,4,0c0.7,0,0.9,0.2,0.9,0.9c0,2.8,0,5.6,0,8.5
		c0,0.7,0.2,1,1,1c1.7-0.1,1.5,0.1,1.5-1.5c0-2.6,0-5.3,0-7.9c0-0.7,0.2-0.9,0.9-0.9c1.3,0,2.7,0,4,0c0.6,0,0.9,0.2,0.9,0.9
		c0,9.8,0,19.6,0,29.4c0,0.7-0.2,0.9-0.9,0.9c-4.1,0-8.2,0-12.3,0c-0.7,0-0.9-0.2-0.9-0.9C139.3,233.8,139.3,228.9,139.3,223.9z
		 M145.1,228.9c0,1.1,0,2.2,0,3.3c0,1.6-0.3,1.6,1.6,1.6c0.7,0,0.9-0.2,0.9-0.9c0-2.4,0-4.7,0-7.1c0-1.8,0.2-1.6-1.7-1.7
		c-0.6,0-0.8,0.2-0.8,0.8C145.1,226.3,145.1,227.6,145.1,228.9z"/>
	<path d="M123.2,223.9c0-4.8,0-9.7,0-14.5c0-0.7,0.2-1.1,1-1c1.3,0.1,2.7,0,4,0c0.6,0,0.8,0.2,0.8,0.9c0,2.8,0,5.6,0,8.4
		c0,1,0,1,1.1,1c1.7,0,1.5,0.2,1.5-1.5c0-2.6,0-5.2,0-7.8c0-0.7,0.2-1,0.9-1c1.4,0,2.7,0,4.1,0c0.6,0,0.8,0.2,0.8,0.8
		c0,9.9,0,19.8,0,29.6c0,0.6-0.2,0.8-0.8,0.8c-4.2,0-8.4,0-12.6,0c-0.8,0-0.8-0.4-0.8-1C123.2,233.7,123.2,228.8,123.2,223.9z
		 M131.5,229.1c0-1.1,0-2.2,0-3.3c0-1.8,0.2-1.5-1.6-1.6c-0.7,0-1,0.2-1,1c0,2.3,0,4.6,0,6.9c0,1.8,0,1.8,1.8,1.8
		c0.6,0,0.8-0.2,0.8-0.8C131.5,231.7,131.5,230.4,131.5,229.1z"/>
	<path d="M55.4,223.9c0-4.8,0-9.7,0-14.5c0-0.8,0.3-1.1,1.1-1c1.3,0,2.6,0,3.9,0c0.7,0,1,0.2,1,1c0,2.7,0,5.4,0,8.1
		c0,1.2,0,1.2,1.2,1.2c1.4,0,1.4,0.3,1.4-1.4c0-2.7,0-5.3,0-8c0-0.7,0.2-0.9,0.9-0.9c1.3,0,2.6,0,4,0c0.6,0,0.9,0.2,0.9,0.9
		c0,9.8,0,19.7,0,29.5c0,0.7-0.2,0.9-0.9,0.9c-4.1,0-8.3,0-12.4,0c-0.7,0-0.9-0.2-0.9-0.9C55.5,233.7,55.4,228.8,55.4,223.9z
		 M63.9,229.1c0-1.1,0-2.2,0-3.3c0-1.8,0.1-1.5-1.6-1.6c-0.8,0-1,0.3-1,1c0,2.3,0,4.6,0,6.9c0,2-0.2,1.7,1.8,1.8
		c0.6,0,0.8-0.2,0.8-0.8C63.9,231.7,63.9,230.4,63.9,229.1z"/>
	<path d="M71.7,208.5c0.3,0,0.6-0.1,1-0.1c1.3,0,2.5,0,3.8,0c0.8,0,1,0.2,1,1c0,2.8,0,5.5,0,8.3c0,0.8,0.2,1.1,1,1
		c0.2,0,0.4,0,0.6,0c0.7,0.1,0.9-0.2,0.9-0.9c0-2.8,0-5.6,0-8.5c0-0.7,0.2-0.9,0.9-0.9c1.4,0,2.7,0,4.1,0c0.6,0,0.8,0.2,0.8,0.8
		c0,9.8,0,19.7,0,29.5c0,0.6-0.2,0.8-0.8,0.8c-4.1,0-8.3,0-12.4,0c-0.6,0-0.8-0.2-0.8-0.8c0-9.9,0-19.8,0-29.7
		C71.6,208.9,71.6,208.7,71.7,208.5z M77.4,229c0,1.1,0,2.3,0,3.4c0,1.5,0,1.4,1.5,1.5c0.7,0,1-0.2,1-1c0-2.3,0-4.7,0-7
		c0-1.7,0-1.7-1.7-1.7c-0.6,0-0.8,0.2-0.8,0.8C77.4,226.3,77.4,227.6,77.4,229z"/>
	<path d="M187.2,208.5c0,0.4,0,0.7,0,1c0,9.7,0,19.3,0,29c0,1.1,0,1.1-1.1,1.1c-4,0-8,0-11.9,0c-0.7,0-1-0.2-1-1
		c0-9.8,0-19.5,0-29.3c0-0.8,0.3-1,1-1c1.3,0,2.6,0,3.9,0c0.8,0,1,0.2,1,1c0,2.7,0,5.5,0,8.2c0,0.8,0.2,1.1,1,1.1
		c1.5-0.1,1.5,0.2,1.5-1.4c0-2.6,0-5.3,0-7.9c0-0.8,0.3-1,1-1c1.3,0,2.5,0,3.8,0C186.5,208.4,186.8,208.5,187.2,208.5z M179,228.9
		c0,1.1,0,2.3,0,3.4c0,1.5,0,1.5,1.5,1.5c0.8,0,1-0.3,1-1c0-2.3,0-4.7,0-7c0-1.8,0.1-1.6-1.6-1.6c-0.7,0-0.9,0.3-0.9,0.9
		C179,226.4,179,227.7,179,228.9z"/>
	<path d="M119.5,224c0,4.8,0,9.7,0,14.5c0,1.1,0,1.1-1.1,1.1c-4,0-8,0-11.9,0c-0.7,0-1-0.2-1-1c0-9.8,0-19.5,0-29.3
		c0-0.7,0.2-1,0.9-1c1.3,0,2.7,0,4,0c0.7,0,0.9,0.3,0.9,0.9c0,2.8,0,5.6,0,8.4c0,0.7,0.2,1,1,1c1.6-0.1,1.5,0.2,1.5-1.5
		c0-2.6,0-5.2,0-7.8c0-0.7,0.2-1,0.9-0.9c1.3,0,2.6,0,3.9,0c0.7,0,0.9,0.3,0.9,1C119.4,214.3,119.5,219.1,119.5,224z M113.7,229
		c0-1.3,0-2.6,0-3.9c0-0.6-0.2-0.9-0.8-0.8c-0.2,0-0.4,0-0.6,0c-0.8-0.1-1,0.2-1,1c0,2.3,0,4.7,0,7c0,1.7-0.4,1.6,1.7,1.6
		c0.6,0,0.8-0.2,0.8-0.8C113.7,231.7,113.7,230.3,113.7,229z"/>
	<path d="M136.1,241.4c2,0,3.8,0,5.8,0c0,1,0,2.1,0,3.2c0.4,0,0.7,0,1,0c3.7,0,7.4,0,11.1,0c0.7,0,0.9,0.2,0.9,0.9
		c0,1.4,0,2.8,0,4.2c0,0.6-0.2,0.8-0.8,0.8c-1.9,0-3.7,0-5.6,0c-3.3,0-6.6,0.1-9.9,0.1c-4.9,0-9.7-0.1-14.6-0.1c-0.7,0-1-0.2-1-1
		c0-1.3,0.1-2.6,0-3.9c0-0.8,0.3-1,1.1-1c3.7,0,7.4,0,11.1,0c0.7,0,1-0.2,0.9-0.9C136.1,243,136.1,242.2,136.1,241.4z"/>
	<path d="M68.1,244.6c0-1.1,0-2.2,0-3.2c1.9,0,3.8,0,5.8,0c0,0.7,0,1.4,0,2.1c0,1.1,0,1.1,1.2,1.1c3.6,0,7.3,0,10.9,0
		c0.8,0,1,0.2,1,1c0,1.3,0,2.7,0,4c0,0.7-0.2,0.9-0.9,0.9c-1.9,0-3.8,0-5.7,0c-3.7,0-7.4,0.1-11,0.1c-4.4,0-8.9-0.1-13.3-0.1
		c-0.7,0-0.9-0.2-0.9-0.9c0-1.4,0-2.7,0-4.1c0-0.7,0.2-0.9,0.9-0.9c3.7,0,7.4,0,11,0C67.3,244.6,67.7,244.6,68.1,244.6z"/>
	<path d="M101.3,241.4c2,0,3.8,0,5.8,0c0,0.6,0,1.3,0,1.9c0,2.1,0,4.2,0,6.4c0,0.6-0.2,0.8-0.8,0.8c-1.4,0-2.8,0-4.3,0
		c-0.2,0-0.7-0.3-0.7-0.4C101.3,247.2,101.3,244.3,101.3,241.4z"/>
	<path d="M175,245.9c0,1.2,0,2.5,0,3.7c0,0.6-0.2,0.9-0.8,0.9c-1.4,0-2.9,0-4.3,0c-0.5,0-0.7-0.2-0.7-0.7c0-2.6,0-5.2,0-7.8
		c0-0.4,0.1-0.6,0.6-0.6c1.5,0,3.1,0,4.6,0c0.6,0,0.7,0.2,0.7,0.7C175,243.4,175,244.6,175,245.9z"/>
</g>
<path id="right-eye" d="M122.4,78.1c0.7-1,2.1-1,2.9-0.1c0.6,0.8,0.8,1.7,0.7,2.6c0,0.3-0.2,0.7-0.3,1c-0.3,0.8-0.9,1.2-1.7,1.1
	c-0.8,0-1.4-0.5-1.7-1.3c0-0.1-0.1-0.2-0.1-0.3c-0.3-0.8-0.4-1.8,0-2.6C122.1,78.5,122.3,78.3,122.4,78.1z"/>
<path id="nose" d="M104.8,87.2c1.1-0.7,2.3-1.2,3.5-1.6c0.9-0.3,1.8-0.4,2.7-0.6c0.9-0.3,1.8-0.2,2.8-0.4c0.4-0.1,0.7-0.1,1.1,0
	c0.6,0,1.3,0.1,1.9,0.2c1.4,0.3,2.6,0.9,3.2,2.4c0.3,0.8,0.4,1.7,0.3,2.6c-0.2,1.2-0.7,2.3-1.4,3.4c-1.2,1.8-2.6,3.2-4.5,4.3
	c-1,0.5-2,0.8-3,0.7c-1.5,0.1-2.8-0.4-4-1.2c-1.1-0.7-2.1-1.4-3.1-2.3c-0.8-0.7-1.5-1.4-2-2.2c-0.6-0.9-0.6-2.1,0-2.9
	C102.9,88.4,103.8,87.8,104.8,87.2z"/>
<path id="left-eye" d="M97.7,81.4c0.1-0.9,0.4-1.6,1.2-2.1c0.6-0.3,1.1-0.3,1.7,0c1,0.6,1.3,1.5,1.3,2.7c0,0.8-0.2,1.5-0.8,2.1
	c-0.5,0.6-1.8,0.6-2.4,0C97.9,83.3,97.6,82.4,97.7,81.4z"/>
<path d="M-1655.7,383.1c-0.1-1-0.5-2.5-0.8-3.5c-0.2-0.8-0.4-1.6-0.8-2.4c-0.8-1.8-1.6-3.6-2.5-5.4c-0.9-1.7-1.8-3.4-2.7-5.2
	c-1-2.1-2-4.2-2.8-6.4c-0.5-1.4-0.9-2.9-1.2-4.4c-0.2-0.9-0.2-1.9-0.3-2.8c0-1.3-0.1-2.6,0.2-3.9c0.2-0.8,0.1-1.6,0.2-2.4
	c0.2-1.5,0.5-3.1,0.5-4.6c0.1-2.1,0.3-4.2-0.2-6.3c-0.2-0.9-0.4-1.7-0.8-2.5c-0.9-1.8-2.2-3.2-4-4.1c-1.7-0.9-3.5-1.4-5.4-1.7
	c-1-0.2-2.1-0.3-3.1-0.5c-1.3-0.2-2.7-0.4-4-0.6c-0.8-0.1-1.6-0.3-2.4-0.5c-1-0.2-1.9-0.5-2.8-0.8c-2.3-0.8-4.1-2.2-5.7-4
	c-1.3-1.6-2.2-3.4-3.2-5.2c-1.2-2.2-2.6-4.2-4.5-5.8c-1.9-1.6-4-2.8-6.3-3.6c-1.4-0.5-2.8-0.8-4.2-0.9c-2-0.2-4.1,0-6,0.5
	c-1.5,0.4-3,1-4.3,1.7c-2.1,1.2-3.9,2.6-5.3,4.4c-0.3,0.4-0.7,0.8-1,1.3c-0.4,0.6-1.3,0.6-1.9,0.2c-0.9-0.7-1.9-1.4-2.9-2.1
	c-1.8-1.2-3.7-2.1-5.7-2.9c-0.9-0.3-1.8-0.7-2.8-1c-0.9-0.3-1.8-0.5-2.7-0.7c-0.6-0.1-1.3-0.3-2-0.4c-1-0.1-2-0.3-3-0.4
	c-1.1-0.1-2.1-0.1-3.2-0.1c-1,0-1.9,0-2.9,0.1c-1,0.1-1.9,0.3-2.9,0.4c-1.1,0.2-2.1,0.3-3.2,0.6c-1,0.3-2,0.6-3,1
	c-1.2,0.4-2.5,0.9-3.6,1.4c-3.3,1.6-6.3,3.7-8.9,6.2c-1.6,1.6-3.1,3.3-4.4,5.1c-1,1.4-2,2.8-3,4.2c-1,1.4-1.9,2.9-3,4.3
	c-1.4,1.9-2.8,3.9-4.3,5.7c-2.5,3-5.5,5.6-8.8,7.9c-0.9,0.6-1.8,1.2-2.6,1.9c-3.4,2.6-6.8,5.2-8.5,9.1c-0.5,1.2-0.9,2.5-0.9,3.8
	c-0.1,1.2-0.1,2.5,0.2,3.8c0.2,1.3,0.6,2.6,1,3.8c0.6,1.9,1.5,3.7,2.5,5.5c1.5,2.8,3.1,5.5,4.5,8.3c0.7,1.2,1.2,2.5,1.7,3.9
	c0.4,1.1,0.7,2.2,1,3.3c0.1,0.5,0.3,1.2,0.3,1.7c0.1,1.3,0.1,2.6,0.1,3.8c0,1.1-0.2,2.2-0.3,3.3c-0.1,0.5-0.2,1.4-0.3,2
	c-0.2,1-0.5,2-0.7,3.1c-0.1,0.5-0.2,0.9-0.3,1.4c-0.1,0.6-0.2,1.2-0.3,1.8c-0.1,0.4-0.2,0.9-0.2,1.3c-0.2,0.9-0.4,1.7-0.4,2.6
	c-0.1,1.4-0.2,2.8,0,4.2c0.1,0.7,0.1,1.4,0.3,2.1c0.3,1,0.6,1.9,1,2.9c0.9,1.9,2.1,3.6,3.5,5.2c1.6,1.7,3.4,3.2,5.4,4.5
	c1.6,1,3.2,2,4.9,2.8c1.1,0.5,2.2,1,3.3,1.5c0.9,0.4,1.8,0.7,2.7,1.1c1.1,0.4,2.3,0.9,3.5,1.3c1,0.4,2.1,0.7,3.2,1
	c0.7,0.2,1.4,0.4,2.1,0.6c0.9,0.2,1.8,0.4,2.7,0.6c1.1,0.2,2.1,0.5,3.2,0.7c0.8,0.2,1.6,0.3,2.4,0.4c1.6,0.2,3.2,0.5,4.9,0.7
	c1.1,0.1,2.1,0.2,3.2,0.3c1.8,0.1,3.6,0.1,5.4,0.1c0,0,0,0,0,0c0.7,0,1.4,0,2.1,0c1.4,0,2.8,0,4.2-0.2c1.1-0.2,2.3-0.1,3.4-0.3
	c1.2-0.2,2.4-0.3,3.6-0.5c0.8-0.1,1.5-0.2,2.3-0.4c0.6-0.1,1.3-0.2,1.9-0.3c0.4-0.1,0.7-0.1,1.1-0.2c0.5-0.1,1.1-0.2,1.6-0.3
	c0.6-0.1,1.2-0.3,1.9-0.4c0.6-0.1,1.1-0.2,1.7-0.3c0.9-0.2,1.8-0.5,2.8-0.7c0.7-0.2,1.3-0.3,2-0.5c0.8-0.2,1.7-0.4,2.5-0.6
	c0.9-0.2,1.8-0.4,2.7-0.6c0.4-0.1,0.9-0.2,1.3-0.3c0.6-0.1,1.1-0.3,1.7-0.4c0.5-0.1,1-0.2,1.6-0.3c1-0.3,2.1-0.5,3.1-0.8
	c0.9-0.2,1.8-0.4,2.7-0.6c0.6-0.1,1.1-0.3,1.7-0.4c0.5-0.1,1-0.2,1.5-0.4c0.6-0.1,1.1-0.3,1.7-0.4c0.5-0.1,1-0.2,1.5-0.3
	c0.9-0.2,1.8-0.5,2.7-0.7c1.1-0.3,2.2-0.5,3.3-0.8c0.4-0.1,0.9-0.2,1.3-0.3c0.8-0.2,1.6-0.4,2.4-0.6c0.9-0.2,1.8-0.6,2.6-0.8
	c0.6-0.2,1.2-0.3,1.8-0.5c1.1-0.4,2.1-0.8,3.1-1.2c1.6-0.6,3-1.4,4.5-2.2c1.9-1.1,3.6-2.3,5.2-3.7c1.4-1.2,2.6-2.6,3.9-3.9
	c2.1-2.1,3.9-4.5,5.7-6.8c0.9-1.2,1.8-2.4,2.7-3.6c1.5-2.1,3-4.1,4.4-6.3c0.9-1.5,1.7-3,2.4-4.6c0.3-0.8,0.6-1.7,0.8-2.5
	c0.2-0.7,0.2-1.3,0.4-2C-1655.4,385.9-1655.5,384.5-1655.7,383.1z M-1734.3,322.5c0.7-1,2.1-1,2.9-0.1c0.6,0.8,0.8,1.7,0.7,2.6
	c0,0.3-0.2,0.7-0.3,1c-0.3,0.8-0.9,1.2-1.7,1.1c-0.8,0-1.4-0.5-1.7-1.3c0-0.1-0.1-0.2-0.1-0.3c-0.3-0.8-0.4-1.8,0-2.6
	C-1734.6,322.9-1734.5,322.7-1734.3,322.5z M-1751.9,331.6c1.1-0.7,2.3-1.2,3.5-1.6c0.9-0.3,1.8-0.4,2.7-0.6
	c0.9-0.3,1.8-0.2,2.8-0.4c0.4-0.1,0.7-0.1,1.1,0c0.6,0,1.3,0.1,1.9,0.2c1.4,0.3,2.6,0.9,3.2,2.4c0.3,0.8,0.4,1.7,0.3,2.6
	c-0.2,1.2-0.7,2.3-1.4,3.4c-1.2,1.8-2.6,3.2-4.5,4.3c-1,0.5-2,0.8-3,0.7c-1.5,0.1-2.8-0.4-4-1.2c-1.1-0.7-2.1-1.4-3.1-2.3
	c-0.8-0.7-1.5-1.4-2-2.2c-0.6-0.9-0.6-2.1,0-2.9C-1753.8,332.9-1752.9,332.2-1751.9,331.6z M-1759,325.8c0.1-0.9,0.4-1.6,1.2-2.1
	c0.6-0.3,1.1-0.3,1.7,0c1,0.6,1.3,1.5,1.3,2.7c0,0.8-0.2,1.5-0.8,2.1c-0.5,0.6-1.8,0.6-2.4,0C-1758.9,327.8-1759.1,326.9-1759,325.8
	z"/>
<path d="M-1809.4,312.4c0.2,1,0.6,1.9,0.9,2.8c0.6,1.6,1.3,3,2.3,4.4c1.3,1.8,2.7,3.5,4.4,5c1.1,0.9,2.1,1.9,3.2,2.7
	c1.9,1.4,3.9,2.8,5.8,4.1c0.7,0.5,0.6,0.4,1.3-0.6c1.2-1.5,2.3-3.1,3.4-4.7c1.8-2.6,3.6-5.2,5.5-7.6c1.5-1.9,3.1-3.6,4.9-5.2
	c1.1-1,2.3-2,3.6-2.8c1-0.6,2-1.3,3.1-2c0-0.5-0.3-0.9-0.5-1.4c-1.2-2.6-3.1-4.8-5.3-6.7c-2.6-2.3-5.7-4-9-5
	c-0.8-0.2-1.6-0.5-2.4-0.6c-1-0.2-2-0.3-3-0.3c-2.5-0.1-5,0-7.4,0.8c-1.4,0.4-2.7,1-3.9,1.6c-3.2,1.7-5.6,4.2-6.8,7.9
	c-0.3,1-0.5,2.1-0.5,3.2c0,0.6,0,1.2,0,1.8C-1809.6,310.6-1809.6,311.5-1809.4,312.4z"/>
<path d="M-1705.7,305.1c0.4,0.2,0.8,0.4,1.2,0.6c3,1.4,5.4,3.5,7.4,6.1c1.2,1.7,2.1,3.5,3.2,5.3c0.9,1.5,1.8,3,3.2,4.1
	c1.1,0.9,2.4,1.6,3.8,2c0.8,0.3,1.6,0.5,2.5,0.6c1.1,0.2,2.1,0.4,3.2,0.5c0.3,0.1,0.5-0.1,0.7-0.4c0.4-1,0.8-2,1.1-3
	c0.2-0.7,0.4-1.4,0.6-2.1c0.2-0.9,0.5-1.8,0.7-2.8c0.2-0.7,0.2-1.5,0.4-2.3c0.3-1.9,0.4-3.9,0.5-6c-0.1-0.9-0.2-2.1-0.2-3.2
	c-0.1-0.8-0.2-2.2-0.4-3c-0.2-1.2-0.4-2.4-0.8-3.6c-0.3-1-0.5-2-0.9-3c-0.6-1.6-1.3-3.1-2.3-4.5c-1.1-1.6-2.4-3-4.1-4
	c-1.2-0.8-2.6-1.2-4-1.4c-1.3-0.2-2.6-0.2-3.9,0.1c-1.2,0.3-2.3,0.6-3.4,1.1c-2.9,1.3-5.1,3.6-6.6,6.4c-0.5,0.8-0.8,1.8-1.1,2.7
	c-0.2,0.7-0.5,1.3-0.6,2c-0.2,0.9-0.3,1.8-0.4,2.8c-0.1,0.8-0.1,1.6-0.1,2.4c0,0.6,0.1,1.2,0.1,1.9
	C-1706.1,304.8-1706,305-1705.7,305.1z"/>
<path id="right-ear-only-stroke" class="st0" d="M150.6,60.1c0-0.6-0.1-1.2-0.1-1.9c0-0.8,0-1.6,0.1-2.4c0.1-0.9,0.2-1.9,0.4-2.8
	c0.2-0.7,0.4-1.3,0.6-2c0.3-0.9,0.6-1.8,1.1-2.7c1.6-2.9,3.7-5.1,6.6-6.4c1.1-0.5,2.2-0.9,3.4-1.1c1.3-0.3,2.6-0.3,3.9-0.1
	c1.4,0.2,2.8,0.7,4,1.4c1.7,1,3,2.4,4.1,4c0.9,1.4,1.7,2.9,2.3,4.5c0.4,1,0.6,2,0.9,3c0.4,1.2,0.6,2.4,0.8,3.6
	c0.1,0.8,0.3,2.2,0.4,3c0.1,1.1,0.2,2.3,0.2,3.2c-0.1,2.1-0.2,4.1-0.5,6c-0.1,0.8-0.2,1.5-0.4,2.3c-0.2,0.9-0.4,1.8-0.7,2.8
	c-0.2,0.7-0.4,1.4-0.6,2.1c-0.3,1-0.7,2-1.1,3"/>
<path id="right-ear" class="st1" d="M151,60.7c0.4,0.2,0.8,0.4,1.2,0.6c3,1.4,5.4,3.5,7.4,6.1c1.2,1.7,2.1,3.5,3.2,5.3
	c0.9,1.5,1.8,3,3.2,4.1c1.1,0.9,2.4,1.6,3.8,2c0.8,0.3,1.6,0.5,2.5,0.6c1.1,0.2,2.1,0.4,3.2,0.5c0.3,0.1,0.5-0.1,0.7-0.4
	c0.4-1,0.8-2,1.1-3c0.2-0.7,0.4-1.4,0.6-2.1c0.2-0.9,0.5-1.8,0.7-2.8c0.2-0.7,0.2-1.5,0.4-2.3c0.3-1.9,0.4-3.9,0.5-6
	c-0.1-0.9-0.2-2.1-0.2-3.2c-0.1-0.8-0.2-2.2-0.4-3c-0.2-1.2-0.4-2.4-0.8-3.6c-0.3-1-0.5-2-0.9-3c-0.6-1.6-1.3-3.1-2.3-4.5
	c-1.1-1.6-2.4-3-4.1-4c-1.2-0.8-2.6-1.2-4-1.4c-1.3-0.2-2.6-0.2-3.9,0.1c-1.2,0.3-2.3,0.6-3.4,1.1c-2.9,1.3-5.1,3.6-6.6,6.4
	c-0.5,0.8-0.8,1.8-1.1,2.7c-0.2,0.7-0.5,1.3-0.6,2c-0.2,0.9-0.3,1.8-0.4,2.8c-0.1,0.8-0.1,1.6-0.1,2.4c0,0.6,0.1,1.2,0.1,1.9
	C150.6,60.3,150.8,60.5,151,60.7z"/>
<path id="left-ear-only-stroke" class="st0" d="M85.8,64c0-0.5-0.3-0.9-0.5-1.4C84,60,82.2,57.8,80,55.9c-2.6-2.3-5.7-4-9-5
	c-0.8-0.2-1.6-0.5-2.4-0.6c-1-0.2-2-0.3-3-0.3c-2.5-0.1-5,0-7.4,0.8c-1.4,0.4-2.7,1-3.9,1.6c-3.2,1.7-5.6,4.2-6.8,7.9
	c-0.3,1-0.5,2.1-0.5,3.2c0,0.6,0,1.2,0,1.8c0.1,0.9,0.1,1.8,0.3,2.7c0.2,1,0.6,1.9,0.9,2.8c0.6,1.6,1.3,3,2.3,4.4
	c1.3,1.8,2.7,3.5,4.4,5c1.1,0.9,2.1,1.9,3.2,2.7c1.9,1.4,3.9,2.8,5.8,4.1"/>
<path id="left-ear" class="st1" d="M47.4,67.9c0.2,1,0.6,1.9,0.9,2.8c0.6,1.6,1.3,3,2.3,4.4c1.3,1.8,2.7,3.5,4.4,5
	c1.1,0.9,2.1,1.9,3.2,2.7c1.9,1.4,3.9,2.8,5.8,4.1c0.7,0.5,0.6,0.4,1.3-0.6c1.2-1.5,2.3-3.1,3.4-4.7c1.8-2.6,3.6-5.2,5.5-7.6
	c1.5-1.9,3.1-3.6,4.9-5.2c1.1-1,2.3-2,3.6-2.8c1-0.6,2-1.3,3.1-2c0-0.5-0.3-0.9-0.5-1.4C84,60,82.2,57.8,80,55.9c-2.6-2.3-5.7-4-9-5
	c-0.8-0.2-1.6-0.5-2.4-0.6c-1-0.2-2-0.3-3-0.3c-2.5-0.1-5,0-7.4,0.8c-1.4,0.4-2.7,1-3.9,1.6c-3.2,1.7-5.6,4.2-6.8,7.9
	c-0.3,1-0.5,2.1-0.5,3.2c0,0.6,0,1.2,0,1.8C47.1,66.1,47.2,67.1,47.4,67.9z"/>
</svg>
