<svg width="100" height="100" viewBox="0 0 100 100" fill="none" xmlns="http://www.w3.org/2000/svg">
<path d="M64.5098 6.02128C50.9662 7.9851 45.2278 17.2056 45.2278 17.2056C44.5142 15.3235 43.596 13.5256 42.4897 11.8445C42.4093 11.7255 42.2938 11.6347 42.1592 11.5848C42.0247 11.5349 41.878 11.5284 41.7396 11.5662C40.1901 12.0505 38.7503 12.8335 37.5013 13.8713C37.4304 13.9288 37.3716 13.9998 37.3283 14.0802C37.2851 14.1607 37.2583 14.2489 37.2495 14.3398C37.2407 14.4308 37.2501 14.5225 37.2771 14.6098C37.3042 14.697 37.3483 14.778 37.4069 14.848C39.5368 17.4959 41.2686 20.4413 42.5474 23.5907C42.5551 23.5959 42.5643 23.5986 42.5736 23.5986C42.5829 23.5986 42.5921 23.5959 42.5998 23.5907C44.8793 23.2446 47.1814 23.0691 49.487 23.0656H50.0745C51.0973 21.7844 55.236 16.733 58.8448 14.0026C58.9287 13.9323 59.036 13.8962 59.1453 13.9015C59.2546 13.9068 59.3579 13.9532 59.4347 14.0313C59.5114 14.1094 59.5559 14.2136 59.5593 14.3231C59.5628 14.4326 59.5249 14.5394 59.4532 14.6222C57.6331 16.9326 55.2569 19.6473 52.7968 23.0971C52.7914 23.1054 52.7881 23.1149 52.7874 23.1248C52.7867 23.1347 52.7886 23.1446 52.7928 23.1535C52.797 23.1625 52.8034 23.1702 52.8115 23.176C52.8196 23.1817 52.829 23.1853 52.8388 23.1864C55.3134 23.3664 57.7694 23.7475 60.1824 24.3258C60.1897 24.3295 60.1978 24.3314 60.206 24.3314C60.2142 24.3314 60.2222 24.3295 60.2296 24.3258C65.9995 19.3217 67.0066 12.1018 67.0905 8.2949C67.0936 7.96837 67.0263 7.64502 66.8933 7.34684C66.7604 7.04866 66.5648 6.78265 66.3199 6.56692C66.075 6.35118 65.7866 6.19078 65.4742 6.09663C65.1619 6.00247 64.833 5.97677 64.5098 6.02128Z" fill="#DBDBDB"/>
<path d="M49.4974 25.586C29.3446 25.586 13 39.6111 13 56.9127C13 67.6034 19.242 77.0392 28.7676 82.6944L25.8984 92.4243C25.7857 92.8049 25.7884 93.2104 25.9061 93.5895C26.0238 93.9686 26.2512 94.3042 26.5595 94.5539C26.8679 94.8035 27.2433 94.956 27.6382 94.9919C28.0332 95.0278 28.4299 94.9456 28.7781 94.7557L42.028 87.5935C44.4944 88.0231 46.9939 88.234 49.4974 88.2236C69.6554 88.2236 86 74.1985 86 56.8969C86 39.5953 69.6554 25.586 49.4974 25.586ZM53.3685 77.6116C40.255 77.6116 29.6174 68.4803 29.6174 57.2225C29.6174 45.9646 40.2498 36.8334 53.3685 36.8334C66.4872 36.8334 77.1248 45.9594 77.1248 57.2225C77.1248 68.4856 66.4872 77.6116 53.3685 77.6116Z" fill="#DBDBDB"/>
<path d="M47.777 59.3385C49.1183 59.3385 50.2056 58.25 50.2056 56.9073C50.2056 55.5646 49.1183 54.4762 47.777 54.4762C46.4357 54.4762 45.3484 55.5646 45.3484 56.9073C45.3484 58.25 46.4357 59.3385 47.777 59.3385Z" fill="#DBDBDB"/>
<path d="M55.5558 63.0719C56.8971 63.0719 57.9844 61.9834 57.9844 60.6407C57.9844 59.298 56.8971 58.2096 55.5558 58.2096C54.2145 58.2096 53.1272 59.298 53.1272 60.6407C53.1272 61.9834 54.2145 63.0719 55.5558 63.0719Z" fill="#DBDBDB"/>
<path d="M63.3349 59.3385C64.6762 59.3385 65.7635 58.25 65.7635 56.9073C65.7635 55.5646 64.6762 54.4762 63.3349 54.4762C61.9936 54.4762 60.9062 55.5646 60.9062 56.9073C60.9062 58.25 61.9936 59.3385 63.3349 59.3385Z" fill="#DBDBDB"/>
</svg>
